ply
format ascii 1.0
comment Created by Blender 2.81 (sub 16) - www.blender.org, source file: ''
element vertex 626
property float x
property float y
property float z
element face 1200
property list uchar uint vertex_indices
end_header
0.084782 -0.028656 0.008752
0.084038 -0.016868 0.031270
0.081876 -0.028655 0.030691
0.087021 -0.016868 0.008752
0.084765 -0.004876 0.031465
0.075363 -0.016868 0.052262
0.073424 -0.028656 0.051143
0.043887 0.074691 0.008752
0.032566 0.079987 0.017478
0.042382 0.074691 0.020108
0.033693 0.079990 0.008752
0.022964 0.083722 0.014905
0.029179 0.079990 0.025598
0.038007 0.074691 0.030695
0.033693 -0.089743 0.008752
0.022964 -0.093475 0.014905
0.023549 -0.093504 0.008752
0.043887 -0.084443 0.008752
0.032566 -0.089739 0.017478
0.038007 -0.084443 0.030695
0.029179 -0.089743 0.025599
0.020394 -0.093504 0.020526
0.087021 0.007116 0.008752
0.087773 -0.004876 0.008752
0.084782 0.018903 0.008752
0.084038 0.007116 0.031270
0.073424 0.018903 0.051143
0.075362 0.007116 0.052263
0.076014 -0.004876 0.052639
0.051601 -0.077765 0.022578
0.042382 -0.084443 0.020108
0.053432 -0.077765 0.008752
0.059938 -0.069842 0.024812
0.046274 -0.077765 0.035468
0.081091 0.030283 0.008752
0.081876 0.018903 0.030691
0.076014 0.041062 0.008752
0.078311 0.030283 0.029736
0.065830 0.041062 0.046759
0.070227 0.030283 0.049297
0.062065 -0.069842 0.008752
0.067247 -0.060806 0.026771
0.069634 -0.060806 0.008752
0.073408 -0.050814 0.028422
0.060305 -0.060806 0.043569
0.053750 -0.069842 0.039785
0.069634 0.051053 0.008752
0.073408 0.041061 0.028422
0.062065 0.060090 0.008752
0.067247 0.051054 0.026771
0.053750 0.060090 0.039785
0.060305 0.051053 0.043569
0.076014 -0.050814 0.008752
0.078311 -0.040035 0.029736
0.081091 -0.040035 0.008752
0.070227 -0.040035 0.049297
0.065830 -0.050814 0.046759
0.053432 0.068013 0.008752
0.059938 0.060090 0.024812
0.051601 0.068013 0.022578
0.046274 0.068013 0.035468
0.037775 -0.077765 0.046526
0.031026 -0.084443 0.039778
0.043878 -0.069842 0.052629
0.026716 -0.077765 0.055026
0.021944 -0.084443 0.046759
0.059938 0.018903 0.068690
0.057328 0.030283 0.066080
0.038007 0.041062 0.074582
0.040546 0.030283 0.078979
0.042391 0.018903 0.082175
0.049229 -0.060806 0.057981
0.053739 -0.050814 0.062490
0.034817 -0.060806 0.069057
0.031033 -0.069842 0.062502
0.053739 0.041061 0.062491
0.049229 0.051054 0.057980
0.031033 0.060090 0.062502
0.034817 0.051053 0.069057
0.057328 -0.040035 0.066080
0.059938 -0.028655 0.068690
0.040546 -0.040035 0.078979
0.038007 -0.050814 0.074582
0.043878 0.060090 0.052629
0.037775 0.068013 0.046526
0.021944 0.074691 0.046759
0.026716 0.068013 0.055026
0.061520 -0.016868 0.070272
0.062052 -0.004876 0.070804
0.043511 -0.016868 0.084114
0.042391 -0.028656 0.082175
0.023840 0.079987 0.032592
0.031026 0.074691 0.039778
0.016811 0.083722 0.025563
0.016847 0.079990 0.037931
0.016811 -0.093475 0.025563
0.023840 -0.089739 0.032592
0.016847 -0.089743 0.037931
0.011775 -0.093504 0.029146
0.061520 0.007116 0.070272
0.043511 0.007116 0.084114
0.043887 -0.004876 0.084766
0.013827 -0.077765 0.060353
0.011357 -0.084443 0.051134
0.016061 -0.069842 0.068690
-0.000000 -0.077765 0.062184
-0.000000 -0.084443 0.052639
0.021939 0.018903 0.090628
0.020984 0.030283 0.087063
-0.000000 0.041062 0.084766
-0.000000 0.030283 0.089842
-0.000000 0.018903 0.093534
0.018019 -0.060806 0.075999
0.019670 -0.050814 0.082160
-0.000000 -0.060806 0.078386
-0.000000 -0.069842 0.070817
0.019670 0.041061 0.082160
0.018019 0.051054 0.075999
-0.000000 0.060090 0.070817
-0.000000 0.051053 0.078386
0.020984 -0.040035 0.087063
0.021939 -0.028655 0.090628
-0.000000 -0.040035 0.089842
-0.000000 -0.050814 0.084766
0.016061 0.060090 0.068689
0.013827 0.068013 0.060353
-0.000000 0.074691 0.052639
-0.000000 0.068013 0.062184
0.022518 -0.016868 0.092790
0.022713 -0.004876 0.093516
-0.000000 -0.016868 0.095773
-0.000000 -0.028656 0.093534
0.008726 0.079987 0.041318
0.011357 0.074691 0.051134
0.006153 0.083722 0.031716
-0.000000 0.079990 0.042445
0.006153 -0.093475 0.031716
0.008726 -0.089739 0.041318
-0.000000 -0.089743 0.042445
-0.000000 -0.093504 0.032300
0.022518 0.007116 0.092790
-0.000000 0.007116 0.095773
-0.000000 -0.004876 0.096525
-0.013826 -0.077765 0.060353
-0.011356 -0.084443 0.051134
-0.016060 -0.069842 0.068689
-0.026716 -0.077765 0.055026
-0.021943 -0.084443 0.046759
-0.021938 0.018903 0.090628
-0.020983 0.030283 0.087063
-0.038006 0.041062 0.074582
-0.040545 0.030283 0.078979
-0.042391 0.018903 0.082175
-0.018018 -0.060806 0.075999
-0.019669 -0.050814 0.082160
-0.034817 -0.060806 0.069057
-0.031032 -0.069842 0.062502
-0.019669 0.041061 0.082160
-0.018018 0.051054 0.075999
-0.031032 0.060090 0.062502
-0.034817 0.051053 0.069057
-0.020983 -0.040035 0.087063
-0.021938 -0.028655 0.090628
-0.040545 -0.040035 0.078979
-0.038006 -0.050814 0.074582
-0.016060 0.060090 0.068689
-0.013826 0.068013 0.060353
-0.021943 0.074691 0.046759
-0.026716 0.068013 0.055026
-0.022518 -0.016868 0.092790
-0.022712 -0.004876 0.093516
-0.043510 -0.016868 0.084114
-0.042391 -0.028656 0.082175
-0.008726 0.079987 0.041318
-0.011356 0.074691 0.051134
-0.006153 0.083722 0.031716
-0.016846 0.079990 0.037931
-0.006153 -0.093475 0.031716
-0.008726 -0.089739 0.041318
-0.016846 -0.089743 0.037931
-0.011774 -0.093504 0.029146
-0.022518 0.007116 0.092790
-0.043510 0.007116 0.084114
-0.043886 -0.004876 0.084766
-0.037774 -0.077765 0.046526
-0.031025 -0.084443 0.039778
-0.043877 -0.069842 0.052629
-0.046273 -0.077765 0.035468
-0.038006 -0.084443 0.030695
-0.059937 0.018903 0.068689
-0.057327 0.030283 0.066080
-0.065829 0.041062 0.046759
-0.070226 0.030283 0.049297
-0.073423 0.018903 0.051143
-0.049228 -0.060806 0.057980
-0.053738 -0.050814 0.062491
-0.060304 -0.060806 0.043569
-0.053749 -0.069842 0.039784
-0.053738 0.041061 0.062491
-0.049228 0.051054 0.057980
-0.053749 0.060090 0.039784
-0.060304 0.051053 0.043569
-0.057327 -0.040035 0.066080
-0.059937 -0.028655 0.068690
-0.070226 -0.040035 0.049297
-0.065829 -0.050814 0.046759
-0.043877 0.060090 0.052629
-0.037774 0.068013 0.046526
-0.038006 0.074691 0.030695
-0.046273 0.068013 0.035468
-0.061520 -0.016868 0.070272
-0.062051 -0.004876 0.070804
-0.075362 -0.016868 0.052263
-0.073423 -0.028656 0.051143
-0.023839 0.079987 0.032592
-0.031025 0.074691 0.039778
-0.016810 0.083722 0.025563
-0.029178 0.079990 0.025598
-0.016810 -0.093475 0.025563
-0.023839 -0.089739 0.032592
-0.029178 -0.089743 0.025598
-0.020393 -0.093504 0.020526
-0.061520 0.007116 0.070272
-0.075362 0.007116 0.052263
-0.076013 -0.004876 0.052639
-0.051600 -0.077765 0.022578
-0.042382 -0.084443 0.020108
-0.059937 -0.069842 0.024812
-0.053432 -0.077765 0.008752
-0.043886 -0.084443 0.008752
-0.081876 0.018903 0.030691
-0.078311 0.030283 0.029735
-0.076013 0.041062 0.008752
-0.081090 0.030283 0.008752
-0.084782 0.018903 0.008752
-0.067247 -0.060806 0.026771
-0.073408 -0.050814 0.028422
-0.069634 -0.060806 0.008752
-0.062064 -0.069842 0.008752
-0.073408 0.041061 0.028422
-0.067247 0.051054 0.026771
-0.062064 0.060090 0.008752
-0.069634 0.051053 0.008752
-0.078311 -0.040035 0.029735
-0.081876 -0.028655 0.030691
-0.081090 -0.040035 0.008752
-0.076013 -0.050814 0.008752
-0.059937 0.060090 0.024812
-0.051600 0.068013 0.022578
-0.043886 0.074691 0.008752
-0.053432 0.068013 0.008752
-0.084038 -0.016868 0.031270
-0.084764 -0.004876 0.031465
-0.087020 -0.016868 0.008752
-0.084782 -0.028656 0.008752
-0.032565 0.079987 0.017478
-0.042382 0.074691 0.020108
-0.022963 0.083722 0.014905
-0.033692 0.079990 0.008752
-0.022963 -0.093475 0.014905
-0.032565 -0.089739 0.017478
-0.033692 -0.089743 0.008752
-0.023548 -0.093504 0.008752
-0.084038 0.007116 0.031270
-0.087020 0.007116 0.008752
-0.087772 -0.004876 0.008752
-0.051600 -0.077765 -0.005074
-0.042382 -0.084443 -0.002604
-0.059937 -0.069842 -0.007308
-0.046273 -0.077765 -0.017964
-0.038006 -0.084443 -0.013191
-0.081876 0.018903 -0.013186
-0.078311 0.030283 -0.012231
-0.065829 0.041062 -0.029255
-0.070226 0.030283 -0.031793
-0.073423 0.018903 -0.033639
-0.067247 -0.060806 -0.009267
-0.073408 -0.050814 -0.010917
-0.060304 -0.060806 -0.026065
-0.053749 -0.069842 -0.022280
-0.073408 0.041061 -0.010917
-0.067247 0.051054 -0.009267
-0.053749 0.060090 -0.022280
-0.060304 0.051053 -0.026065
-0.078311 -0.040035 -0.012231
-0.081876 -0.028655 -0.013186
-0.070226 -0.040035 -0.031793
-0.065829 -0.050814 -0.029255
-0.059937 0.060090 -0.007308
-0.051600 0.068013 -0.005074
-0.038006 0.074691 -0.013191
-0.046273 0.068013 -0.017964
-0.084038 -0.016868 -0.013766
-0.084764 -0.004876 -0.013960
-0.075362 -0.016868 -0.034758
-0.073423 -0.028656 -0.033639
-0.032565 0.079987 0.000026
-0.042382 0.074691 -0.002604
-0.022963 0.083722 0.002599
-0.029178 0.079990 -0.008094
-0.022963 -0.093475 0.002599
-0.032565 -0.089739 0.000026
-0.029178 -0.089743 -0.008094
-0.020393 -0.093504 -0.003022
-0.084038 0.007116 -0.013766
-0.075362 0.007116 -0.034758
-0.076013 -0.004876 -0.035134
-0.037774 -0.077765 -0.029022
-0.031025 -0.084443 -0.022274
-0.043877 -0.069842 -0.035125
-0.026716 -0.077765 -0.037521
-0.021943 -0.084443 -0.029255
-0.059937 0.018903 -0.051185
-0.057327 0.030283 -0.048575
-0.038006 0.041062 -0.057077
-0.040545 0.030283 -0.061474
-0.042391 0.018903 -0.064671
-0.049228 -0.060806 -0.040476
-0.053738 -0.050814 -0.044986
-0.034817 -0.060806 -0.051553
-0.031032 -0.069842 -0.044997
-0.053738 0.041061 -0.044986
-0.049228 0.051054 -0.040476
-0.031032 0.060090 -0.044997
-0.034817 0.051053 -0.051553
-0.057327 -0.040035 -0.048575
-0.059937 -0.028655 -0.051185
-0.040545 -0.040035 -0.061474
-0.038006 -0.050814 -0.057077
-0.043877 0.060090 -0.035125
-0.037774 0.068013 -0.029022
-0.021943 0.074691 -0.029255
-0.026716 0.068013 -0.037521
-0.061520 -0.016868 -0.052768
-0.062051 -0.004876 -0.053299
-0.043510 -0.016868 -0.066610
-0.042391 -0.028656 -0.064671
-0.023839 0.079987 -0.015087
-0.031025 0.074691 -0.022274
-0.016810 0.083722 -0.008058
-0.016846 0.079990 -0.020427
-0.016810 -0.093475 -0.008058
-0.023839 -0.089739 -0.015087
-0.016846 -0.089743 -0.020427
-0.011774 -0.093504 -0.011641
-0.061520 0.007116 -0.052768
-0.043510 0.007116 -0.066610
-0.043886 -0.004876 -0.067261
-0.013826 -0.077765 -0.042848
-0.011356 -0.084443 -0.033630
-0.016060 -0.069842 -0.051185
-0.000000 -0.077765 -0.044680
-0.000000 -0.084443 -0.035134
-0.021938 0.018903 -0.073124
-0.020983 0.030283 -0.069559
-0.000000 0.041062 -0.067261
-0.000000 0.030283 -0.072338
-0.000000 0.018903 -0.076030
-0.018018 -0.060806 -0.058495
-0.019669 -0.050814 -0.064656
-0.000000 -0.060806 -0.060882
-0.000000 -0.069842 -0.053312
-0.019669 0.041061 -0.064656
-0.018018 0.051054 -0.058495
-0.000000 0.060090 -0.053312
-0.000000 0.051053 -0.060882
-0.020983 -0.040035 -0.069559
-0.021938 -0.028655 -0.073124
-0.000000 -0.040035 -0.072338
-0.000000 -0.050814 -0.067261
-0.016060 0.060090 -0.051185
-0.013826 0.068013 -0.042848
-0.000000 0.074691 -0.035134
-0.000000 0.068013 -0.044680
-0.022518 -0.016868 -0.075286
-0.022712 -0.004876 -0.076012
-0.000000 -0.016868 -0.078268
-0.000000 -0.028656 -0.076030
-0.008726 0.079987 -0.023813
-0.011356 0.074691 -0.033630
-0.006153 0.083722 -0.014211
-0.000000 0.079990 -0.024940
-0.006153 -0.093475 -0.014211
-0.008726 -0.089739 -0.023813
-0.000000 -0.089743 -0.024941
-0.000000 -0.093504 -0.014796
-0.022518 0.007116 -0.075286
-0.000000 0.007116 -0.078269
-0.000000 -0.004876 -0.079021
0.013827 -0.077765 -0.042848
0.011357 -0.084443 -0.033630
0.016061 -0.069842 -0.051185
0.026716 -0.077765 -0.037521
0.021944 -0.084443 -0.029255
0.021939 0.018903 -0.073124
0.020984 0.030283 -0.069559
0.038007 0.041062 -0.057077
0.040546 0.030283 -0.061474
0.042391 0.018903 -0.064671
0.018019 -0.060806 -0.058495
0.019670 -0.050814 -0.064656
0.034817 -0.060806 -0.051553
0.031033 -0.069842 -0.044997
0.019670 0.041061 -0.064656
0.018019 0.051054 -0.058495
0.031033 0.060090 -0.044997
0.034817 0.051053 -0.051552
0.020984 -0.040035 -0.069559
0.021939 -0.028655 -0.073124
0.040546 -0.040035 -0.061474
0.038007 -0.050814 -0.057077
0.016061 0.060090 -0.051185
0.013827 0.068013 -0.042848
0.021944 0.074691 -0.029255
0.026716 0.068013 -0.037521
0.022518 -0.016868 -0.075286
0.022713 -0.004876 -0.076012
0.043511 -0.016868 -0.066610
0.042391 -0.028656 -0.064671
0.008726 0.079987 -0.023813
0.011357 0.074691 -0.033630
0.006153 0.083722 -0.014211
0.016847 0.079990 -0.020427
0.006153 -0.093475 -0.014212
0.008726 -0.089739 -0.023813
0.016847 -0.089743 -0.020427
0.011775 -0.093504 -0.011641
0.022518 0.007116 -0.075286
0.043511 0.007116 -0.066610
0.043887 -0.004876 -0.067261
0.037775 -0.077765 -0.029022
0.031026 -0.084443 -0.022274
0.043878 -0.069842 -0.035125
0.046274 -0.077765 -0.017964
0.038007 -0.084443 -0.013191
0.059938 0.018903 -0.051185
0.057328 0.030283 -0.048575
0.065830 0.041062 -0.029255
0.070227 0.030283 -0.031793
0.073424 0.018903 -0.033639
0.049229 -0.060806 -0.040476
0.053739 -0.050814 -0.044986
0.060305 -0.060806 -0.026065
0.053750 -0.069842 -0.022280
0.053739 0.041061 -0.044986
0.049229 0.051054 -0.040476
0.053750 0.060090 -0.022280
0.060305 0.051053 -0.026065
0.057328 -0.040035 -0.048575
0.059938 -0.028655 -0.051185
0.070227 -0.040035 -0.031793
0.065830 -0.050814 -0.029255
0.043877 0.060090 -0.035125
0.037775 0.068013 -0.029022
0.038007 0.074691 -0.013191
0.046274 0.068013 -0.017964
0.061520 -0.016868 -0.052768
0.062052 -0.004876 -0.053300
0.075362 -0.016868 -0.034758
0.073424 -0.028656 -0.033639
0.023840 0.079987 -0.015087
0.031026 0.074691 -0.022274
0.016811 0.083722 -0.008058
0.029179 0.079990 -0.008094
0.016811 -0.093475 -0.008058
0.023840 -0.089739 -0.015087
0.029179 -0.089743 -0.008094
0.020394 -0.093504 -0.003022
0.061520 0.007116 -0.052768
0.075362 0.007116 -0.034758
0.076014 -0.004876 -0.035134
0.013872 -0.095696 0.008752
0.012014 -0.095696 0.015688
-0.000000 -0.096938 0.008752
0.015500 -0.095372 0.012905
0.023549 0.083751 0.008752
0.015500 0.085619 0.012905
0.012014 0.085944 0.015688
0.013872 0.085943 0.008752
-0.000000 0.087186 0.008752
0.020394 0.083752 0.020526
0.006936 -0.095696 0.020766
0.011347 -0.095372 0.020099
0.011347 0.085619 0.020099
0.006936 0.085944 0.020766
0.011775 0.083752 0.029146
-0.000000 -0.095696 0.022624
0.004153 -0.095372 0.024252
0.004153 0.085619 0.024252
-0.000000 0.085944 0.022624
-0.000000 0.083752 0.032300
-0.006936 -0.095696 0.020766
-0.004153 -0.095372 0.024252
-0.004153 0.085619 0.024252
-0.006936 0.085944 0.020766
-0.011774 0.083752 0.029146
-0.012013 -0.095696 0.015688
-0.011346 -0.095371 0.020099
-0.011346 0.085619 0.020099
-0.012013 0.085944 0.015688
-0.020393 0.083752 0.020526
-0.013872 -0.095696 0.008752
-0.015499 -0.095372 0.012905
-0.015499 0.085619 0.012905
-0.013872 0.085944 0.008752
-0.023548 0.083752 0.008752
-0.012013 -0.095696 0.001816
-0.015499 -0.095371 0.004599
-0.015499 0.085619 0.004599
-0.012013 0.085944 0.001816
-0.020393 0.083752 -0.003022
-0.006936 -0.095696 -0.003261
-0.011346 -0.095372 -0.002594
-0.011346 0.085619 -0.002594
-0.006936 0.085944 -0.003261
-0.011774 0.083752 -0.011641
-0.000000 -0.095696 -0.005120
-0.004153 -0.095371 -0.006747
-0.004153 0.085619 -0.006747
-0.000000 0.085944 -0.005120
-0.000000 0.083752 -0.014796
0.006936 -0.095696 -0.003261
0.004153 -0.095371 -0.006747
0.004153 0.085619 -0.006747
0.006936 0.085944 -0.003261
0.011775 0.083752 -0.011641
0.012014 -0.095696 0.001816
0.011347 -0.095371 -0.002594
0.011347 0.085619 -0.002594
0.012014 0.085944 0.001816
0.020394 0.083752 -0.003022
0.051601 -0.077765 -0.005074
0.042382 -0.084443 -0.002604
0.059938 -0.069842 -0.007308
0.081876 0.018903 -0.013186
0.078311 0.030283 -0.012231
0.067247 -0.060806 -0.009267
0.073408 -0.050814 -0.010917
0.073408 0.041061 -0.010917
0.067247 0.051054 -0.009267
0.078311 -0.040035 -0.012231
0.081876 -0.028655 -0.013186
0.059938 0.060090 -0.007308
0.051601 0.068013 -0.005074
0.015500 -0.095372 0.004599
0.022964 -0.093475 0.002599
0.084038 -0.016868 -0.013766
0.084765 -0.004876 -0.013960
0.032566 0.079987 0.000026
0.042382 0.074691 -0.002604
0.022964 0.083722 0.002599
0.032566 -0.089739 0.000026
0.084038 0.007116 -0.013766
0.015500 0.085619 0.004599
-0.003159 0.037018 -0.077570
-0.004467 0.088556 -0.212873
-0.003159 0.087615 -0.213225
-0.004467 -0.012638 0.058435
-0.004467 0.037960 -0.077219
-0.005472 0.039185 -0.076762
-0.005472 0.089782 -0.212416
-0.000000 0.098662 -0.209104
0.001635 0.047862 -0.073526
0.001635 0.098459 -0.209180
-0.000000 0.048065 -0.073450
0.001635 -0.002735 0.062129
0.003160 0.047272 -0.073746
0.003160 0.097868 -0.209400
0.006319 0.092742 -0.211312
0.006102 0.040613 -0.076229
0.006102 0.091210 -0.211884
0.006319 0.042145 -0.075658
0.006102 -0.009984 0.059425
0.005472 0.039185 -0.076762
0.005472 0.089782 -0.212416
-0.006102 0.040613 -0.076229
-0.006102 0.091210 -0.211884
-0.006102 -0.009984 0.059425
-0.006318 -0.008452 0.059996
-0.006318 0.042145 -0.075658
-0.006318 0.092741 -0.211312
0.004467 0.096927 -0.209751
0.004467 -0.004267 0.061557
0.004467 0.046330 -0.074097
0.005472 0.045105 -0.074554
0.005472 0.095702 -0.210208
0.004467 0.088556 -0.212873
0.005472 -0.011412 0.058893
0.004467 0.037959 -0.077219
0.003160 -0.013579 0.058084
0.003160 0.037018 -0.077570
0.003160 0.087615 -0.213225
-0.006102 0.043677 -0.075087
-0.006102 0.094273 -0.210741
-0.006102 -0.006920 0.060568
-0.005472 0.045105 -0.074554
-0.005472 0.095702 -0.210208
0.006102 0.043677 -0.075087
0.006102 0.094273 -0.210741
0.006102 -0.006920 0.060568
0.001635 0.087024 -0.213445
0.001635 0.036428 -0.077790
-0.000000 -0.014373 0.057788
-0.000000 0.036225 -0.077866
-0.000000 0.086822 -0.213521
-0.004467 0.046330 -0.074097
-0.004467 0.096927 -0.209751
-0.005472 -0.005492 0.061101
-0.003159 -0.003325 0.061909
-0.003159 0.047272 -0.073746
-0.003159 0.097868 -0.209400
-0.001635 0.087024 -0.213445
-0.001635 0.036428 -0.077790
-0.003159 -0.013579 0.058084
-0.001635 0.047862 -0.073526
-0.001635 0.098459 -0.209180
-0.001635 -0.002735 0.062129
-0.005472 -0.011412 0.058893
-0.000000 -0.002532 0.062205
0.003160 -0.003325 0.061909
0.006319 -0.008452 0.059997
0.005472 -0.005492 0.061101
0.004467 -0.012638 0.058436
0.001635 -0.014169 0.057864
-0.004467 -0.004267 0.061558
-0.001635 -0.014170 0.057864
3 0 1 2
3 3 4 1
3 4 5 1
3 1 6 2
3 7 8 9
3 10 11 8
3 11 12 8
3 8 13 9
3 14 15 16
3 17 18 14
3 18 19 20
3 15 20 21
3 22 4 23
3 24 25 22
3 25 26 27
3 4 27 28
3 17 29 30
3 31 32 29
3 32 33 29
3 29 19 30
3 34 35 24
3 36 37 34
3 37 38 39
3 35 39 26
3 40 41 32
3 42 43 41
3 43 44 41
3 41 45 32
3 46 47 36
3 48 49 46
3 49 50 51
3 47 51 38
3 52 53 43
3 54 2 53
3 2 55 53
3 53 56 43
3 57 58 48
3 7 59 57
3 59 13 60
3 58 60 50
3 19 61 62
3 33 63 61
3 63 64 61
3 61 65 62
3 39 66 26
3 38 67 39
3 67 68 69
3 66 69 70
3 45 71 63
3 44 72 71
3 72 73 71
3 71 74 63
3 51 75 38
3 50 76 51
3 76 77 78
3 75 78 68
3 56 79 72
3 55 80 79
3 80 81 79
3 79 82 72
3 60 83 50
3 13 84 60
3 84 85 86
3 83 86 77
3 6 87 80
3 5 88 87
3 88 89 87
3 87 90 80
3 13 91 92
3 12 93 91
3 93 94 91
3 91 85 92
3 20 95 21
3 19 96 20
3 96 65 97
3 95 97 98
3 27 88 28
3 26 99 27
3 99 70 100
3 88 100 101
3 65 102 103
3 64 104 102
3 104 105 102
3 102 106 103
3 69 107 70
3 68 108 69
3 108 109 110
3 107 110 111
3 74 112 104
3 73 113 112
3 113 114 112
3 112 115 104
3 78 116 68
3 77 117 78
3 117 118 119
3 116 119 109
3 82 120 113
3 81 121 120
3 121 122 120
3 120 123 113
3 86 124 77
3 85 125 86
3 125 126 127
3 124 127 118
3 90 128 121
3 89 129 128
3 129 130 128
3 128 131 121
3 85 132 133
3 94 134 132
3 134 135 132
3 132 126 133
3 97 136 98
3 65 137 97
3 137 106 138
3 136 138 139
3 100 129 101
3 70 140 100
3 140 111 141
3 129 141 142
3 106 143 144
3 105 145 143
3 145 146 143
3 143 147 144
3 110 148 111
3 109 149 110
3 149 150 151
3 148 151 152
3 115 153 145
3 114 154 153
3 154 155 153
3 153 156 145
3 119 157 109
3 118 158 119
3 158 159 160
3 157 160 150
3 123 161 154
3 122 162 161
3 162 163 161
3 161 164 154
3 127 165 118
3 126 166 127
3 166 167 168
3 165 168 159
3 131 169 162
3 130 170 169
3 170 171 169
3 169 172 162
3 126 173 174
3 135 175 173
3 175 176 173
3 173 167 174
3 138 177 139
3 106 178 138
3 178 147 179
3 177 179 180
3 141 170 142
3 111 181 141
3 181 152 182
3 170 182 183
3 147 184 185
3 146 186 184
3 186 187 184
3 184 188 185
3 151 189 152
3 150 190 151
3 190 191 192
3 189 192 193
3 156 194 186
3 155 195 194
3 195 196 194
3 194 197 186
3 160 198 150
3 159 199 160
3 199 200 201
3 198 201 191
3 164 202 195
3 163 203 202
3 203 204 202
3 202 205 195
3 168 206 159
3 167 207 168
3 207 208 209
3 206 209 200
3 172 210 203
3 171 211 210
3 211 212 210
3 210 213 203
3 167 214 215
3 176 216 214
3 216 217 214
3 214 208 215
3 179 218 180
3 147 219 179
3 219 188 220
3 218 220 221
3 182 211 183
3 152 222 182
3 222 193 223
3 211 223 224
3 188 225 226
3 187 227 225
3 227 228 225
3 225 229 226
3 192 230 193
3 191 231 192
3 231 232 233
3 230 233 234
3 197 235 227
3 196 236 235
3 236 237 235
3 235 238 227
3 201 239 191
3 200 240 201
3 240 241 242
3 239 242 232
3 205 243 236
3 204 244 243
3 244 245 243
3 243 246 236
3 209 247 200
3 208 248 209
3 248 249 250
3 247 250 241
3 213 251 244
3 212 252 251
3 252 253 251
3 251 254 244
3 208 255 256
3 217 257 255
3 257 258 255
3 255 249 256
3 220 259 221
3 188 260 220
3 260 229 261
3 259 261 262
3 223 252 224
3 193 263 223
3 263 234 264
3 252 264 265
3 229 266 267
3 228 268 266
3 268 269 266
3 266 270 267
3 233 271 234
3 232 272 233
3 272 273 274
3 271 274 275
3 238 276 268
3 237 277 276
3 277 278 276
3 276 279 268
3 242 280 232
3 241 281 242
3 281 282 283
3 280 283 273
3 246 284 277
3 245 285 284
3 285 286 284
3 284 287 277
3 250 288 241
3 249 289 250
3 289 290 291
3 288 291 282
3 254 292 285
3 253 293 292
3 293 294 292
3 292 295 285
3 249 296 297
3 258 298 296
3 298 299 296
3 296 290 297
3 261 300 262
3 229 301 261
3 301 270 302
3 300 302 303
3 264 293 265
3 234 304 264
3 304 275 305
3 293 305 306
3 270 307 308
3 269 309 307
3 309 310 307
3 307 311 308
3 274 312 275
3 273 313 274
3 313 314 315
3 312 315 316
3 279 317 309
3 278 318 317
3 318 319 317
3 317 320 309
3 283 321 273
3 282 322 283
3 322 323 324
3 321 324 314
3 287 325 318
3 286 326 325
3 326 327 325
3 325 328 318
3 291 329 282
3 290 330 291
3 330 331 332
3 329 332 323
3 295 333 326
3 294 334 333
3 334 335 333
3 333 336 326
3 290 337 338
3 299 339 337
3 339 340 337
3 337 331 338
3 302 341 303
3 270 342 302
3 342 311 343
3 341 343 344
3 305 334 306
3 275 345 305
3 345 316 346
3 334 346 347
3 311 348 349
3 310 350 348
3 350 351 348
3 348 352 349
3 315 353 316
3 314 354 315
3 354 355 356
3 353 356 357
3 320 358 350
3 319 359 358
3 359 360 358
3 358 361 350
3 324 362 314
3 323 363 324
3 363 364 365
3 362 365 355
3 328 366 359
3 327 367 366
3 367 368 366
3 366 369 359
3 332 370 323
3 331 371 332
3 371 372 373
3 370 373 364
3 336 374 367
3 335 375 374
3 375 376 374
3 374 377 367
3 331 378 379
3 340 380 378
3 380 381 378
3 378 372 379
3 343 382 344
3 311 383 343
3 383 352 384
3 382 384 385
3 346 375 347
3 316 386 346
3 386 357 387
3 375 387 388
3 352 389 390
3 351 391 389
3 391 392 389
3 389 393 390
3 356 394 357
3 355 395 356
3 395 396 397
3 394 397 398
3 361 399 391
3 360 400 399
3 400 401 399
3 399 402 391
3 365 403 355
3 364 404 365
3 404 405 406
3 403 406 396
3 369 407 400
3 368 408 407
3 408 409 407
3 407 410 400
3 373 411 364
3 372 412 373
3 412 413 414
3 411 414 405
3 377 415 408
3 376 416 415
3 416 417 415
3 415 418 408
3 372 419 420
3 381 421 419
3 421 422 419
3 419 413 420
3 384 423 385
3 352 424 384
3 424 393 425
3 423 425 426
3 387 416 388
3 357 427 387
3 427 398 428
3 416 428 429
3 393 430 431
3 392 432 430
3 432 433 430
3 430 434 431
3 397 435 398
3 396 436 397
3 436 437 438
3 435 438 439
3 402 440 432
3 401 441 440
3 441 442 440
3 440 443 432
3 406 444 396
3 405 445 406
3 445 446 447
3 444 447 437
3 410 448 441
3 409 449 448
3 449 450 448
3 448 451 441
3 414 452 405
3 413 453 414
3 453 454 455
3 452 455 446
3 418 456 449
3 417 457 456
3 457 458 456
3 456 459 449
3 413 460 461
3 422 462 460
3 462 463 460
3 460 454 461
3 425 464 426
3 393 465 425
3 465 434 466
3 464 466 467
3 428 457 429
3 398 468 428
3 468 439 469
3 457 469 470
3 471 472 473
3 16 474 471
3 21 474 15
3 475 476 11
3 477 478 479
3 480 476 477
3 472 481 473
3 21 482 472
3 98 482 95
3 480 483 93
3 484 477 479
3 485 483 484
3 481 486 473
3 98 487 481
3 139 487 136
3 485 488 134
3 489 484 479
3 490 488 489
3 486 491 473
3 139 492 486
3 180 492 177
3 490 493 175
3 494 489 479
3 495 493 494
3 491 496 473
3 180 497 491
3 221 497 218
3 495 498 216
3 499 494 479
3 500 498 499
3 496 501 473
3 221 502 496
3 262 502 259
3 500 503 257
3 504 499 479
3 505 503 504
3 501 506 473
3 262 507 501
3 303 507 300
3 505 508 298
3 509 504 479
3 510 508 509
3 506 511 473
3 303 512 506
3 344 512 341
3 510 513 339
3 514 509 479
3 515 513 514
3 511 516 473
3 344 517 511
3 385 517 382
3 515 518 380
3 519 514 479
3 520 518 519
3 516 521 473
3 385 522 516
3 426 522 423
3 520 523 421
3 524 519 479
3 525 523 524
3 521 526 473
3 426 527 521
3 467 527 464
3 525 528 462
3 529 524 479
3 530 528 529
3 434 531 532
3 433 533 531
3 533 31 531
3 531 17 532
3 438 534 439
3 437 535 438
3 535 36 34
3 534 34 24
3 443 536 533
3 442 537 536
3 537 42 536
3 536 40 533
3 447 538 437
3 446 539 447
3 539 48 46
3 538 46 36
3 451 540 537
3 450 541 540
3 541 54 540
3 540 52 537
3 455 542 446
3 454 543 455
3 543 7 57
3 542 57 48
3 526 471 473
3 467 544 526
3 16 544 545
3 459 546 541
3 458 547 546
3 547 3 546
3 546 0 541
3 454 548 549
3 463 550 548
3 550 10 548
3 548 7 549
3 466 545 467
3 434 551 466
3 551 17 14
3 545 14 16
3 469 547 470
3 439 552 469
3 552 24 22
3 547 22 23
3 530 553 550
3 478 529 479
3 475 553 478
3 554 555 556
3 554 557 558
3 557 559 558
3 555 559 560
3 561 562 563
3 564 565 562
3 565 566 562
3 562 567 563
3 568 569 570
3 571 572 569
3 572 573 569
3 569 574 570
3 560 575 576
3 559 577 575
3 575 578 579
3 575 580 576
3 566 581 567
3 566 582 583
3 582 584 583
3 581 584 585
3 573 586 574
3 587 588 573
3 588 589 590
3 586 590 591
3 580 592 593
3 578 592 579
3 594 595 592
3 592 596 593
3 585 597 598
3 584 599 597
3 599 571 597
3 597 568 598
3 590 600 591
3 589 601 590
3 601 602 603
3 600 603 604
3 596 605 606
3 607 605 595
3 605 608 609
3 606 609 610
3 603 611 604
3 602 612 603
3 612 613 554
3 611 554 556
3 610 614 615
3 609 616 614
3 616 564 614
3 614 561 615
3 0 3 1
3 3 23 4
3 4 28 5
3 1 5 6
3 7 10 8
3 10 475 11
3 11 480 12
3 8 12 13
3 14 18 15
3 17 30 18
3 18 30 19
3 15 18 20
3 22 25 4
3 24 35 25
3 25 35 26
3 4 25 27
3 17 31 29
3 31 40 32
3 32 45 33
3 29 33 19
3 34 37 35
3 36 47 37
3 37 47 38
3 35 37 39
3 40 42 41
3 42 52 43
3 43 56 44
3 41 44 45
3 46 49 47
3 48 58 49
3 49 58 50
3 47 49 51
3 52 54 53
3 54 0 2
3 2 6 55
3 53 55 56
3 57 59 58
3 7 9 59
3 59 9 13
3 58 59 60
3 19 33 61
3 33 45 63
3 63 74 64
3 61 64 65
3 39 67 66
3 38 75 67
3 67 75 68
3 66 67 69
3 45 44 71
3 44 56 72
3 72 82 73
3 71 73 74
3 51 76 75
3 50 83 76
3 76 83 77
3 75 76 78
3 56 55 79
3 55 6 80
3 80 90 81
3 79 81 82
3 60 84 83
3 13 92 84
3 84 92 85
3 83 84 86
3 6 5 87
3 5 28 88
3 88 101 89
3 87 89 90
3 13 12 91
3 12 480 93
3 93 485 94
3 91 94 85
3 20 96 95
3 19 62 96
3 96 62 65
3 95 96 97
3 27 99 88
3 26 66 99
3 99 66 70
3 88 99 100
3 65 64 102
3 64 74 104
3 104 115 105
3 102 105 106
3 69 108 107
3 68 116 108
3 108 116 109
3 107 108 110
3 74 73 112
3 73 82 113
3 113 123 114
3 112 114 115
3 78 117 116
3 77 124 117
3 117 124 118
3 116 117 119
3 82 81 120
3 81 90 121
3 121 131 122
3 120 122 123
3 86 125 124
3 85 133 125
3 125 133 126
3 124 125 127
3 90 89 128
3 89 101 129
3 129 142 130
3 128 130 131
3 85 94 132
3 94 485 134
3 134 490 135
3 132 135 126
3 97 137 136
3 65 103 137
3 137 103 106
3 136 137 138
3 100 140 129
3 70 107 140
3 140 107 111
3 129 140 141
3 106 105 143
3 105 115 145
3 145 156 146
3 143 146 147
3 110 149 148
3 109 157 149
3 149 157 150
3 148 149 151
3 115 114 153
3 114 123 154
3 154 164 155
3 153 155 156
3 119 158 157
3 118 165 158
3 158 165 159
3 157 158 160
3 123 122 161
3 122 131 162
3 162 172 163
3 161 163 164
3 127 166 165
3 126 174 166
3 166 174 167
3 165 166 168
3 131 130 169
3 130 142 170
3 170 183 171
3 169 171 172
3 126 135 173
3 135 490 175
3 175 495 176
3 173 176 167
3 138 178 177
3 106 144 178
3 178 144 147
3 177 178 179
3 141 181 170
3 111 148 181
3 181 148 152
3 170 181 182
3 147 146 184
3 146 156 186
3 186 197 187
3 184 187 188
3 151 190 189
3 150 198 190
3 190 198 191
3 189 190 192
3 156 155 194
3 155 164 195
3 195 205 196
3 194 196 197
3 160 199 198
3 159 206 199
3 199 206 200
3 198 199 201
3 164 163 202
3 163 172 203
3 203 213 204
3 202 204 205
3 168 207 206
3 167 215 207
3 207 215 208
3 206 207 209
3 172 171 210
3 171 183 211
3 211 224 212
3 210 212 213
3 167 176 214
3 176 495 216
3 216 500 217
3 214 217 208
3 179 219 218
3 147 185 219
3 219 185 188
3 218 219 220
3 182 222 211
3 152 189 222
3 222 189 193
3 211 222 223
3 188 187 225
3 187 197 227
3 227 238 228
3 225 228 229
3 192 231 230
3 191 239 231
3 231 239 232
3 230 231 233
3 197 196 235
3 196 205 236
3 236 246 237
3 235 237 238
3 201 240 239
3 200 247 240
3 240 247 241
3 239 240 242
3 205 204 243
3 204 213 244
3 244 254 245
3 243 245 246
3 209 248 247
3 208 256 248
3 248 256 249
3 247 248 250
3 213 212 251
3 212 224 252
3 252 265 253
3 251 253 254
3 208 217 255
3 217 500 257
3 257 505 258
3 255 258 249
3 220 260 259
3 188 226 260
3 260 226 229
3 259 260 261
3 223 263 252
3 193 230 263
3 263 230 234
3 252 263 264
3 229 228 266
3 228 238 268
3 268 279 269
3 266 269 270
3 233 272 271
3 232 280 272
3 272 280 273
3 271 272 274
3 238 237 276
3 237 246 277
3 277 287 278
3 276 278 279
3 242 281 280
3 241 288 281
3 281 288 282
3 280 281 283
3 246 245 284
3 245 254 285
3 285 295 286
3 284 286 287
3 250 289 288
3 249 297 289
3 289 297 290
3 288 289 291
3 254 253 292
3 253 265 293
3 293 306 294
3 292 294 295
3 249 258 296
3 258 505 298
3 298 510 299
3 296 299 290
3 261 301 300
3 229 267 301
3 301 267 270
3 300 301 302
3 264 304 293
3 234 271 304
3 304 271 275
3 293 304 305
3 270 269 307
3 269 279 309
3 309 320 310
3 307 310 311
3 274 313 312
3 273 321 313
3 313 321 314
3 312 313 315
3 279 278 317
3 278 287 318
3 318 328 319
3 317 319 320
3 283 322 321
3 282 329 322
3 322 329 323
3 321 322 324
3 287 286 325
3 286 295 326
3 326 336 327
3 325 327 328
3 291 330 329
3 290 338 330
3 330 338 331
3 329 330 332
3 295 294 333
3 294 306 334
3 334 347 335
3 333 335 336
3 290 299 337
3 299 510 339
3 339 515 340
3 337 340 331
3 302 342 341
3 270 308 342
3 342 308 311
3 341 342 343
3 305 345 334
3 275 312 345
3 345 312 316
3 334 345 346
3 311 310 348
3 310 320 350
3 350 361 351
3 348 351 352
3 315 354 353
3 314 362 354
3 354 362 355
3 353 354 356
3 320 319 358
3 319 328 359
3 359 369 360
3 358 360 361
3 324 363 362
3 323 370 363
3 363 370 364
3 362 363 365
3 328 327 366
3 327 336 367
3 367 377 368
3 366 368 369
3 332 371 370
3 331 379 371
3 371 379 372
3 370 371 373
3 336 335 374
3 335 347 375
3 375 388 376
3 374 376 377
3 331 340 378
3 340 515 380
3 380 520 381
3 378 381 372
3 343 383 382
3 311 349 383
3 383 349 352
3 382 383 384
3 346 386 375
3 316 353 386
3 386 353 357
3 375 386 387
3 352 351 389
3 351 361 391
3 391 402 392
3 389 392 393
3 356 395 394
3 355 403 395
3 395 403 396
3 394 395 397
3 361 360 399
3 360 369 400
3 400 410 401
3 399 401 402
3 365 404 403
3 364 411 404
3 404 411 405
3 403 404 406
3 369 368 407
3 368 377 408
3 408 418 409
3 407 409 410
3 373 412 411
3 372 420 412
3 412 420 413
3 411 412 414
3 377 376 415
3 376 388 416
3 416 429 417
3 415 417 418
3 372 381 419
3 381 520 421
3 421 525 422
3 419 422 413
3 384 424 423
3 352 390 424
3 424 390 393
3 423 424 425
3 387 427 416
3 357 394 427
3 427 394 398
3 416 427 428
3 393 392 430
3 392 402 432
3 432 443 433
3 430 433 434
3 397 436 435
3 396 444 436
3 436 444 437
3 435 436 438
3 402 401 440
3 401 410 441
3 441 451 442
3 440 442 443
3 406 445 444
3 405 452 445
3 445 452 446
3 444 445 447
3 410 409 448
3 409 418 449
3 449 459 450
3 448 450 451
3 414 453 452
3 413 461 453
3 453 461 454
3 452 453 455
3 418 417 456
3 417 429 457
3 457 470 458
3 456 458 459
3 413 422 460
3 422 525 462
3 462 530 463
3 460 463 454
3 425 465 464
3 393 431 465
3 465 431 434
3 464 465 466
3 428 468 457
3 398 435 468
3 468 435 439
3 457 468 469
3 471 474 472
3 16 15 474
3 21 472 474
3 475 478 476
3 477 476 478
3 480 11 476
3 472 482 481
3 21 95 482
3 98 481 482
3 480 477 483
3 484 483 477
3 485 93 483
3 481 487 486
3 98 136 487
3 139 486 487
3 485 484 488
3 489 488 484
3 490 134 488
3 486 492 491
3 139 177 492
3 180 491 492
3 490 489 493
3 494 493 489
3 495 175 493
3 491 497 496
3 180 218 497
3 221 496 497
3 495 494 498
3 499 498 494
3 500 216 498
3 496 502 501
3 221 259 502
3 262 501 502
3 500 499 503
3 504 503 499
3 505 257 503
3 501 507 506
3 262 300 507
3 303 506 507
3 505 504 508
3 509 508 504
3 510 298 508
3 506 512 511
3 303 341 512
3 344 511 512
3 510 509 513
3 514 513 509
3 515 339 513
3 511 517 516
3 344 382 517
3 385 516 517
3 515 514 518
3 519 518 514
3 520 380 518
3 516 522 521
3 385 423 522
3 426 521 522
3 520 519 523
3 524 523 519
3 525 421 523
3 521 527 526
3 426 464 527
3 467 526 527
3 525 524 528
3 529 528 524
3 530 462 528
3 434 433 531
3 433 443 533
3 533 40 31
3 531 31 17
3 438 535 534
3 437 538 535
3 535 538 36
3 534 535 34
3 443 442 536
3 442 451 537
3 537 52 42
3 536 42 40
3 447 539 538
3 446 542 539
3 539 542 48
3 538 539 46
3 451 450 540
3 450 459 541
3 541 0 54
3 540 54 52
3 455 543 542
3 454 549 543
3 543 549 7
3 542 543 57
3 526 544 471
3 467 545 544
3 16 471 544
3 459 458 546
3 458 470 547
3 547 23 3
3 546 3 0
3 454 463 548
3 463 530 550
3 550 475 10
3 548 10 7
3 466 551 545
3 434 532 551
3 551 532 17
3 545 551 14
3 469 552 547
3 439 534 552
3 552 534 24
3 547 552 22
3 530 529 553
3 478 553 529
3 475 550 553
3 554 558 555
3 554 613 557
3 557 617 559
3 555 558 559
3 561 564 562
3 564 618 565
3 565 619 566
3 562 566 567
3 568 571 569
3 571 620 572
3 572 587 573
3 569 573 574
3 560 559 575
3 559 617 577
3 575 577 578
3 575 579 580
3 566 583 581
3 566 619 582
3 582 621 584
3 581 583 584
3 573 588 586
3 587 622 588
3 588 622 589
3 586 588 590
3 580 579 592
3 578 594 592
3 594 607 595
3 592 595 596
3 585 584 597
3 584 621 599
3 599 620 571
3 597 571 568
3 590 601 600
3 589 623 601
3 601 623 602
3 600 601 603
3 596 595 605
3 607 624 605
3 605 624 608
3 606 605 609
3 603 612 611
3 602 625 612
3 612 625 613
3 611 612 554
3 610 609 614
3 609 608 616
3 616 618 564
3 614 564 561
