ply
format ascii 1.0
comment Created by Blender 2.81 (sub 16) - www.blender.org, source file: ''
element vertex 458
property float x
property float y
property float z
element face 894
property list uchar uint vertex_indices
end_header
-0.227439 0.109491 0.117419
-0.245618 0.154857 0.075156
-0.256915 0.118950 0.133337
-0.193163 0.100531 0.103684
-0.221555 0.142509 0.065555
-0.191280 0.130813 0.057394
-0.215717 0.153673 0.002066
-0.234408 0.166457 0.001966
-0.194192 -0.000696 0.143209
-0.230118 0.057130 0.147668
-0.230654 -0.004874 0.157277
-0.194020 0.054082 0.133081
-0.193370 -0.099928 0.104091
-0.230468 -0.065228 0.148692
-0.228086 -0.113442 0.119288
-0.194132 -0.054927 0.133379
-0.236246 -0.162938 0.006846
-0.222403 -0.141454 0.067857
-0.247244 -0.155929 0.080594
-0.216674 -0.150109 0.003919
-0.191551 -0.128355 0.057600
-0.258157 -0.129232 0.137412
-0.213723 -0.113442 -0.111874
-0.231408 -0.155929 -0.067898
-0.230579 -0.129232 -0.126206
-0.188774 -0.099928 -0.099145
-0.214154 -0.141454 -0.060222
-0.189718 -0.138027 0.001999
-0.229774 -0.010557 -0.161609
-0.213544 -0.065228 -0.141118
-0.230237 -0.077819 -0.155188
-0.213304 -0.004874 -0.149522
-0.188717 -0.054928 -0.128058
-0.228970 0.118950 -0.124837
-0.213063 0.057130 -0.140192
-0.229312 0.059811 -0.153570
-0.212885 0.109491 -0.110908
-0.188562 0.054082 -0.127732
-0.188640 -0.000696 -0.137775
-0.213176 0.142509 -0.060574
-0.229529 0.154857 -0.069593
-0.188599 0.130813 -0.052844
-0.188506 0.100531 -0.098644
-0.001379 0.001267 -0.094396
-0.047880 -0.039378 -0.095952
-0.047880 0.001267 -0.104159
0.040068 0.001267 -0.084748
-0.001380 -0.035646 -0.086943
0.040068 -0.060196 -0.059289
-0.001379 -0.067019 -0.066112
-0.047880 -0.073922 -0.073015
-0.001379 0.069553 -0.066112
-0.047880 0.041912 -0.095952
-0.047880 0.076456 -0.073015
0.040068 0.062730 -0.059289
-0.001379 0.038181 -0.086943
-0.001379 -0.067019 0.070460
-0.047880 -0.039378 0.100300
-0.047880 -0.073922 0.077363
0.040068 -0.060196 0.063637
-0.001379 -0.035646 0.091291
0.040068 0.001267 0.089096
-0.001379 0.001267 0.098745
-0.047880 0.001267 0.108508
-0.001379 0.097838 0.002174
-0.047880 0.099394 -0.038471
-0.047880 0.107601 0.002174
0.040068 0.088189 0.002174
-0.001379 0.090384 -0.034739
-0.001379 -0.095303 0.002174
-0.047880 -0.096859 0.042819
-0.047880 -0.105066 0.002174
0.040068 -0.085655 0.002174
-0.001379 -0.087849 0.039087
-0.001379 0.069553 0.070460
-0.047880 0.099393 0.042819
-0.047880 0.076457 0.077363
0.040068 0.062730 0.063637
-0.001379 0.090384 0.039087
-0.047880 -0.096859 -0.038471
-0.001380 -0.087849 -0.034739
-0.047880 0.041913 0.100300
-0.001379 0.038181 0.091291
0.058635 0.001267 -0.078367
0.040068 -0.031958 -0.078039
0.062921 0.001267 -0.074968
0.058635 -0.029519 -0.072151
0.062921 -0.053280 -0.052373
0.058635 -0.055684 -0.054777
0.058635 0.058218 -0.054777
0.040068 0.034493 -0.078039
0.062921 0.055815 -0.052373
0.058635 0.032054 -0.072151
0.058635 -0.055684 0.059125
0.040068 -0.031958 0.082387
0.062921 -0.053280 0.056721
0.058635 -0.029519 0.076499
0.062921 0.001267 0.079316
0.058635 0.001267 0.082715
0.058635 0.081808 0.002174
0.040068 0.081480 -0.031051
0.062921 0.078409 0.002174
0.058635 0.075592 -0.028612
0.058635 -0.079274 0.002174
0.040068 -0.078946 0.035399
0.062921 -0.075874 0.002174
0.058635 -0.073057 0.032960
0.058635 0.058218 0.059125
0.040068 0.081480 0.035399
0.062921 0.055815 0.056721
0.058635 0.075592 0.032960
0.040068 -0.078946 -0.031051
0.058635 -0.073057 -0.028612
0.040068 0.034493 0.082387
0.058635 0.032054 0.076499
-0.151429 -0.048400 -0.117102
-0.151419 0.001022 -0.126912
-0.112599 -0.044645 -0.108690
-0.112599 -0.083633 -0.082828
-0.151436 -0.090186 -0.089537
-0.151409 0.050525 -0.117044
-0.151402 0.092583 -0.089336
-0.112598 0.047185 -0.108682
-0.112599 0.001267 -0.117954
-0.152010 -0.090186 0.093683
-0.112599 -0.083632 0.087059
-0.152105 -0.048400 0.121537
-0.112598 -0.044645 0.113023
-0.152113 0.001022 0.131396
-0.189412 0.141441 0.002139
-0.151414 0.120440 -0.047359
-0.151515 0.130382 0.002170
-0.112598 0.112124 -0.043744
-0.112599 0.086211 -0.082770
-0.151783 -0.117616 0.051359
-0.112599 -0.118686 0.001941
-0.151554 -0.127321 0.001598
-0.151984 0.092583 0.093771
-0.112599 0.086211 0.087118
-0.151749 0.120440 0.051732
-0.112598 0.112124 0.048092
-0.188912 -0.128355 -0.053262
-0.151453 -0.117616 -0.047809
-0.112599 -0.109463 -0.043912
-0.112599 0.001267 0.122302
-0.152091 0.050525 0.121517
-0.112598 0.047186 0.113030
-0.081787 0.001267 -0.111271
-0.081787 -0.042096 -0.102516
-0.081787 -0.078945 -0.078051
-0.081787 0.081485 -0.078044
-0.081787 0.044631 -0.102515
-0.081787 -0.078945 0.082384
-0.081787 -0.042095 0.106862
-0.081787 0.001267 0.115619
-0.081787 0.114712 0.002174
-0.112599 0.121396 0.002174
-0.081787 0.105956 -0.041189
-0.081787 -0.112156 0.002145
-0.112599 -0.109463 0.047924
-0.081787 -0.103406 0.045517
-0.081787 0.081485 0.082392
-0.081787 0.105956 0.045538
-0.081787 -0.103406 -0.041210
-0.081787 0.044631 0.106863
-0.246932 -0.174745 -0.075781
-0.246471 -0.148633 -0.142808
-0.253902 -0.180062 0.009746
-0.245638 -0.016262 -0.176136
-0.246284 -0.091105 -0.171724
-0.244189 0.129614 -0.141296
-0.244944 0.062689 -0.169564
-0.251250 0.179419 0.002107
-0.244233 0.167751 -0.078861
0.069217 0.001260 -0.076463
0.067727 -0.027909 -0.068264
0.067727 0.001267 -0.074155
0.071038 0.001212 -0.079476
0.069217 -0.028799 -0.070394
0.071038 -0.029999 -0.073174
0.069217 -0.054345 -0.053431
0.067727 -0.052706 -0.051799
0.067727 0.055240 -0.051799
0.069217 0.031319 -0.070394
0.067727 0.030444 -0.068264
0.071038 0.058949 -0.055561
0.069217 0.056866 -0.053431
0.071038 0.032423 -0.073174
0.067727 -0.052706 0.056147
0.069217 -0.028798 0.074742
0.067727 -0.027909 0.072612
0.069217 -0.054345 0.057779
0.071038 -0.029998 0.077525
0.071038 0.001212 0.083828
0.069217 0.001260 0.080812
0.067727 0.001267 0.078503
0.067727 0.077597 0.002174
0.069217 0.073829 -0.027884
0.067727 0.071705 -0.027002
0.069217 0.079898 0.002174
0.071038 0.076562 -0.029035
0.067727 -0.075062 0.002174
0.069217 -0.071308 0.032233
0.067727 -0.069171 0.031350
0.069217 -0.077377 0.002174
0.071038 -0.074137 0.033386
0.071038 -0.056524 0.059912
0.067727 0.055240 0.056147
0.069217 0.073828 0.032233
0.067727 0.071705 0.031350
0.069217 0.056867 0.057779
0.071038 0.076562 0.033386
0.071038 0.082864 0.002176
0.069217 -0.071308 -0.027884
0.067727 -0.069171 -0.027002
0.071038 -0.056524 -0.055561
0.071038 -0.074137 -0.029035
0.069217 0.031319 0.074742
0.067727 0.030444 0.072612
0.071038 0.032423 0.077525
0.071038 0.058949 0.059912
0.209867 0.102903 0.044418
0.231994 0.100373 0.002183
0.209867 0.111431 0.002183
0.231994 0.071249 0.072494
0.231994 0.092698 0.040191
0.251396 0.060737 0.061982
0.251396 0.078979 0.034509
0.251396 0.085506 0.002183
0.267262 0.067584 0.002183
0.267262 0.048064 0.049309
0.267251 0.062500 0.027683
0.278682 0.045169 0.020504
0.278775 0.048351 0.002183
0.082504 0.091407 0.002182
0.095503 0.093379 0.040470
0.095503 0.101111 0.002183
0.082504 0.064925 0.066114
0.082504 0.084428 0.036742
0.095503 0.071773 0.073011
0.113670 0.102903 0.044418
0.113670 0.111431 0.002183
0.136131 0.109176 0.047017
0.136131 0.118230 0.002183
0.113670 0.079069 0.080314
0.136131 0.083876 0.085121
0.160881 0.111304 0.047898
0.160881 0.120535 0.002183
0.185852 0.118230 0.002183
0.185852 0.083876 0.085121
0.185852 0.109176 0.047017
0.209867 0.079069 0.080314
0.136131 0.045772 0.110421
0.113670 0.000938 0.112676
0.113670 0.043173 0.104148
0.136131 0.000938 0.119475
0.160881 0.046653 0.112549
0.160881 0.085506 0.086751
0.185852 0.000938 0.119475
0.185852 0.045772 0.110421
0.209867 0.000938 0.112676
0.209867 0.043173 0.104148
0.231994 0.000938 0.101618
0.231994 0.038946 0.093943
0.251396 0.000938 0.086751
0.251396 0.033263 0.080224
0.267262 0.000938 0.068829
0.267251 0.026438 0.063745
0.278682 0.019259 0.046415
0.278775 0.034464 0.035709
0.082504 0.035553 0.085617
0.082504 0.000993 0.092595
0.095503 0.039233 0.094617
0.095503 0.000945 0.102348
0.209867 -0.041297 0.104148
0.231994 -0.069373 0.072494
0.231994 -0.037070 0.093943
0.251396 -0.058860 0.061982
0.251396 -0.031387 0.080224
0.267262 -0.046188 0.049309
0.267251 -0.024562 0.063745
0.278682 -0.017383 0.046415
0.278775 0.000938 0.049596
0.082504 -0.033567 0.085617
0.082504 -0.062939 0.066114
0.095503 -0.037343 0.094617
0.095503 -0.069883 0.073011
0.113670 -0.041297 0.104148
0.136131 -0.043896 0.110421
0.113670 -0.077192 0.080314
0.136131 -0.081999 0.085121
0.160881 -0.044777 0.112549
0.160881 0.000938 0.121780
0.185852 -0.082000 0.085121
0.185852 -0.043896 0.110421
0.209867 -0.077192 0.080314
0.095503 -0.091489 0.040470
0.082504 -0.089421 0.002182
0.082504 -0.082442 0.036742
0.095503 -0.099221 0.002183
0.113670 -0.101027 0.044418
0.136131 -0.107300 0.047017
0.113670 -0.109555 0.002183
0.136131 -0.116353 0.002183
0.160881 -0.109428 0.047898
0.160881 -0.083630 0.086751
0.185852 -0.116353 0.002183
0.185852 -0.107300 0.047017
0.209867 -0.109555 0.002183
0.209867 -0.101027 0.044418
0.231994 -0.098497 0.002183
0.231994 -0.090822 0.040191
0.251396 -0.083630 0.002183
0.251396 -0.077103 0.034509
0.267262 -0.065708 0.002183
0.267251 -0.060624 0.027683
0.278682 -0.043293 0.020504
0.278775 -0.032588 0.035709
0.160881 -0.109428 -0.043532
0.160881 -0.118659 0.002183
0.185852 -0.082000 -0.080754
0.185852 -0.107300 -0.042651
0.209867 -0.077192 -0.075947
0.209867 -0.101027 -0.040052
0.231994 -0.069373 -0.068128
0.231994 -0.090822 -0.035825
0.251396 -0.058860 -0.057615
0.251396 -0.077103 -0.030142
0.267262 -0.046188 -0.044943
0.267251 -0.060624 -0.023317
0.278682 -0.043293 -0.016138
0.278775 -0.046475 0.002183
0.095503 -0.091489 -0.036105
0.082504 -0.062939 -0.061751
0.082504 -0.082442 -0.032378
0.095503 -0.069883 -0.068645
0.113670 -0.101027 -0.040052
0.136131 -0.107300 -0.042651
0.113670 -0.077192 -0.075947
0.136131 -0.081999 -0.080754
0.251396 -0.031387 -0.075857
0.267262 0.000938 -0.064463
0.267251 -0.024562 -0.059379
0.278682 -0.017383 -0.042048
0.278775 -0.032588 -0.031343
0.095503 -0.037343 -0.090251
0.082504 -0.033567 -0.081254
0.095503 0.000945 -0.097983
0.113670 -0.041297 -0.099782
0.136131 -0.043896 -0.106055
0.113670 0.000938 -0.108310
0.136131 0.000938 -0.115108
0.160881 -0.044777 -0.108183
0.160881 -0.083630 -0.082385
0.185852 0.000938 -0.115108
0.185852 -0.043896 -0.106055
0.209867 0.000938 -0.108310
0.209867 -0.041297 -0.099782
0.231994 0.000938 -0.097252
0.231994 -0.037070 -0.089577
0.251396 0.000938 -0.082385
0.136131 0.045772 -0.106055
0.113670 0.079069 -0.075947
0.113670 0.043173 -0.099782
0.136131 0.083876 -0.080755
0.160881 0.046653 -0.108183
0.160881 0.000938 -0.117414
0.185852 0.083876 -0.080754
0.185852 0.045772 -0.106055
0.209867 0.079069 -0.075947
0.209867 0.043173 -0.099782
0.231994 0.071249 -0.068128
0.231994 0.038946 -0.089577
0.251396 0.060737 -0.057615
0.251396 0.033263 -0.075857
0.267262 0.048064 -0.044943
0.267251 0.026438 -0.059379
0.278682 0.019259 -0.042048
0.278775 0.000938 -0.045230
0.082504 0.000993 -0.088232
0.095503 0.039232 -0.090251
0.082504 0.035553 -0.081254
0.095503 0.071773 -0.068645
0.284528 0.030959 0.014618
0.285496 0.028858 0.002183
0.285495 0.020680 0.021925
0.288633 0.000938 0.002183
0.284528 0.013373 0.032204
0.285496 0.000938 0.030102
0.284528 -0.011497 0.032204
0.285496 -0.018804 0.021925
0.284528 -0.029083 0.014618
0.285496 -0.026981 0.002183
0.284528 -0.029083 -0.010252
0.285496 -0.018804 -0.017559
0.284528 -0.011497 -0.027838
0.285496 0.000938 -0.025736
0.284528 0.013373 -0.027838
0.278775 0.034464 -0.031343
0.285496 0.020680 -0.017559
0.209867 0.102903 -0.040052
0.231994 0.092698 -0.035825
0.251396 0.078979 -0.030142
0.074847 0.061072 -0.057791
0.082504 0.064925 -0.061751
0.074847 0.033521 -0.076085
0.074847 0.001103 -0.082631
0.267251 0.062500 -0.023317
0.278682 0.045170 -0.016138
0.095503 0.093379 -0.036105
0.082504 0.084428 -0.032378
0.113670 0.102903 -0.040052
0.284528 0.030959 -0.010252
0.136131 0.109177 -0.042651
0.160881 0.111304 -0.043532
0.160881 0.085506 -0.082385
0.185852 0.109176 -0.042651
0.074847 0.085912 0.002179
0.074847 0.079366 -0.030239
0.074847 0.079366 0.034596
0.074847 0.061072 0.062148
0.074847 0.033521 0.080442
0.074847 0.001103 0.086988
0.074847 -0.031315 0.080442
0.074847 -0.058867 0.062148
0.071038 -0.080440 0.002176
0.074847 -0.077161 0.034596
0.074847 -0.083707 0.002179
0.074847 -0.058867 -0.057791
0.074847 -0.077161 -0.030239
0.074847 -0.031315 -0.076085
0.065412 0.001267 -0.073606
0.062921 -0.028220 -0.069013
0.065412 -0.027699 -0.067757
0.065412 -0.052318 -0.051411
0.065412 0.054852 -0.051411
0.062921 0.030754 -0.069013
0.065412 0.030234 -0.067757
0.065412 -0.052318 0.055759
0.062921 -0.028220 0.073362
0.065412 -0.027699 0.072105
0.065412 0.001267 0.077954
0.065412 0.077048 0.002174
0.062921 0.072455 -0.027313
0.065412 0.071199 -0.026792
0.065412 -0.074513 0.002174
0.062921 -0.069920 0.031661
0.065412 -0.068664 0.031141
0.065412 0.054852 0.055759
0.062921 0.072455 0.031661
0.065412 0.071199 0.031141
0.062921 -0.069920 -0.027313
0.065412 -0.068664 -0.026792
0.062921 0.030754 0.073362
0.065412 0.030234 0.072105
-0.262057 0.059811 0.163935
-0.262730 -0.077819 0.166060
-0.263088 -0.010557 0.172587
3 0 1 2
3 3 4 0
3 5 6 4
3 4 7 1
3 8 9 10
3 11 0 9
3 12 13 14
3 15 10 13
3 16 17 18
3 19 20 17
3 17 12 14
3 18 14 21
3 22 23 24
3 25 26 22
3 26 27 19
3 23 19 16
3 28 29 30
3 31 32 29
3 29 25 22
3 30 22 24
3 33 34 35
3 36 37 34
3 34 38 31
3 35 31 28
3 7 39 40
3 6 41 39
3 39 42 36
3 40 36 33
3 43 44 45
3 46 47 43
3 47 48 49
3 44 49 50
3 51 52 53
3 54 55 51
3 55 46 43
3 52 43 45
3 56 57 58
3 59 60 56
3 60 61 62
3 57 62 63
3 64 65 66
3 67 68 64
3 68 54 51
3 65 51 53
3 69 70 71
3 72 73 69
3 73 59 56
3 70 56 58
3 74 75 76
3 77 78 74
3 78 67 64
3 75 64 66
3 49 79 50
3 48 80 49
3 80 72 69
3 79 69 71
3 62 81 63
3 61 82 62
3 82 77 74
3 81 74 76
3 83 84 46
3 85 86 83
3 86 87 88
3 84 88 48
3 89 90 54
3 91 92 89
3 92 85 83
3 90 83 46
3 93 94 59
3 95 96 93
3 96 97 98
3 94 98 61
3 99 100 67
3 101 102 99
3 102 91 89
3 100 89 54
3 103 104 72
3 105 106 103
3 106 95 93
3 104 93 59
3 107 108 77
3 109 110 107
3 110 101 99
3 108 99 67
3 88 111 48
3 87 112 88
3 112 105 103
3 111 103 72
3 98 113 61
3 97 114 98
3 114 109 107
3 113 107 77
3 38 115 32
3 116 117 115
3 115 118 119
3 32 119 25
3 42 120 37
3 121 122 120
3 120 123 116
3 37 116 38
3 124 15 12
3 125 126 124
3 127 128 126
3 126 8 15
3 129 130 41
3 131 132 130
3 130 133 121
3 41 121 42
3 27 134 20
3 135 134 136
3 134 125 124
3 20 124 12
3 137 5 3
3 138 139 137
3 140 131 139
3 139 129 5
3 119 141 25
3 118 142 119
3 143 136 142
3 142 27 141
3 128 11 8
3 144 145 128
3 146 137 145
3 145 3 11
3 147 117 123
3 45 148 147
3 148 50 149
3 148 118 117
3 150 122 133
3 53 151 150
3 151 45 147
3 122 147 123
3 152 127 125
3 58 153 152
3 153 63 154
3 127 154 144
3 155 132 156
3 66 157 155
3 157 53 150
3 132 150 133
3 158 159 135
3 71 160 158
3 160 58 152
3 160 125 159
3 161 140 138
3 76 162 161
3 162 66 155
3 140 155 156
3 149 143 118
3 50 163 149
3 79 158 163
3 163 135 143
3 154 146 144
3 63 164 154
3 164 76 161
3 146 161 138
3 24 165 166
3 165 16 167
3 168 30 169
3 169 24 166
3 170 35 171
3 171 28 168
3 172 40 173
3 173 33 170
3 174 175 176
3 177 178 174
3 179 180 178
3 178 181 175
3 182 183 184
3 185 183 186
3 187 174 183
3 183 176 184
3 188 189 190
3 191 192 189
3 189 193 194
3 189 195 190
3 196 197 198
3 199 200 197
3 200 186 197
3 197 182 198
3 201 202 203
3 204 205 202
3 202 206 191
3 202 188 203
3 207 208 209
3 210 211 208
3 208 212 199
3 208 196 209
3 181 213 214
3 215 213 180
3 216 204 213
3 213 201 214
3 195 217 218
3 194 219 217
3 217 220 210
3 217 207 218
3 221 222 223
3 221 224 225
3 225 226 227
3 225 228 222
3 227 229 228
3 227 230 231
3 230 232 231
3 229 232 233
3 234 235 236
3 237 235 238
3 239 240 235
3 236 240 241
3 241 242 243
3 244 242 240
3 245 246 242
3 243 246 247
3 246 248 247
3 246 249 250
3 250 251 221
3 250 223 248
3 244 252 245
3 253 252 254
3 255 256 252
3 245 256 257
3 256 249 257
3 256 258 259
3 259 260 261
3 259 251 249
3 261 224 251
3 261 262 263
3 263 264 265
3 263 226 224
3 265 230 226
3 265 266 267
3 266 268 267
3 230 268 269
3 270 239 237
3 271 272 270
3 273 254 272
3 239 254 244
3 274 262 260
3 274 275 276
3 276 277 278
3 276 264 262
3 278 266 264
3 278 279 280
3 279 281 280
3 266 281 282
3 283 273 271
3 284 285 283
3 286 287 285
3 273 287 253
3 253 288 255
3 289 288 287
3 290 291 288
3 255 291 292
3 291 258 292
3 291 293 294
3 294 295 274
3 294 260 258
3 284 296 286
3 297 296 298
3 299 300 296
3 286 300 289
3 289 301 290
3 302 301 300
3 303 304 301
3 290 304 305
3 304 293 305
3 304 306 307
3 307 308 309
3 307 295 293
3 309 275 295
3 309 310 311
3 311 312 313
3 311 277 275
3 313 279 277
3 313 314 315
3 314 316 315
3 279 316 317
3 318 306 319
3 318 320 321
3 321 322 323
3 321 308 306
3 323 310 308
3 323 324 325
3 325 326 327
3 325 312 310
3 327 314 312
3 327 328 329
3 328 330 329
3 314 330 331
3 297 332 299
3 333 332 334
3 335 336 332
3 299 336 302
3 302 337 303
3 338 337 336
3 339 318 337
3 303 318 319
3 340 328 326
3 340 341 342
3 341 343 342
3 328 343 344
3 333 345 335
3 346 347 345
3 347 348 345
3 335 348 338
3 338 349 339
3 350 349 348
3 351 352 349
3 339 352 353
3 352 320 353
3 352 354 355
3 355 356 357
3 355 322 320
3 357 324 322
3 357 358 359
3 359 360 340
3 359 326 324
3 350 361 351
3 362 361 363
3 364 365 361
3 351 365 366
3 365 354 366
3 365 367 368
3 368 369 370
3 368 356 354
3 370 358 356
3 370 371 372
3 372 373 374
3 372 360 358
3 374 341 360
3 374 375 376
3 375 377 376
3 341 377 378
3 379 380 347
3 381 382 380
3 382 363 380
3 347 363 350
3 233 383 384
3 269 383 232
3 384 385 386
3 269 387 385
3 282 387 268
3 385 388 386
3 282 389 388
3 317 389 281
3 388 390 386
3 317 391 390
3 331 391 316
3 390 392 386
3 331 393 392
3 344 393 330
3 392 394 386
3 344 395 394
3 378 395 343
3 394 396 386
3 378 397 396
3 398 397 377
3 396 399 386
3 400 371 369
3 400 222 401
3 401 228 402
3 401 373 371
3 403 187 185
3 404 405 403
3 381 406 405
3 405 177 187
3 402 375 373
3 402 229 407
3 229 408 407
3 375 408 398
3 404 409 382
3 234 409 410
3 236 411 409
3 382 411 362
3 398 412 399
3 233 412 408
3 399 384 386
3 362 413 364
3 241 413 411
3 243 414 413
3 364 414 415
3 414 367 415
3 414 248 416
3 416 223 400
3 416 369 367
3 417 200 212
3 234 418 417
3 410 403 418
3 418 185 200
3 220 419 211
3 420 238 419
3 419 234 417
3 211 417 212
3 193 421 219
3 422 270 421
3 421 237 420
3 219 420 220
3 206 423 192
3 424 283 423
3 423 271 422
3 192 422 193
3 205 424 206
3 425 426 205
3 427 298 426
3 426 284 424
3 428 216 215
3 333 429 428
3 334 427 429
3 429 425 216
3 406 179 177
3 379 430 406
3 346 428 430
3 430 215 179
3 431 432 85
3 431 175 433
3 175 434 433
3 432 434 87
3 435 436 91
3 435 184 437
3 184 431 437
3 436 431 85
3 438 439 95
3 438 190 440
3 190 441 440
3 439 441 97
3 442 443 101
3 442 198 444
3 198 435 444
3 443 435 91
3 445 446 105
3 445 203 447
3 203 438 447
3 446 438 95
3 448 449 109
3 448 209 450
3 209 442 450
3 449 442 101
3 434 451 87
3 434 214 452
3 214 445 452
3 451 445 105
3 441 453 97
3 441 218 454
3 218 448 454
3 453 448 109
3 0 4 1
3 3 5 4
3 5 129 6
3 4 6 7
3 10 9 455
3 8 11 9
3 11 3 0
3 9 0 2
3 14 13 456
3 12 15 13
3 15 8 10
3 13 10 457
3 16 19 17
3 19 27 20
3 17 20 12
3 18 17 14
3 22 26 23
3 25 141 26
3 26 141 27
3 23 26 19
3 28 31 29
3 31 38 32
3 29 32 25
3 30 29 22
3 33 36 34
3 36 42 37
3 34 37 38
3 35 34 31
3 7 6 39
3 6 129 41
3 39 41 42
3 40 39 36
3 43 47 44
3 46 84 47
3 47 84 48
3 44 47 49
3 51 55 52
3 54 90 55
3 55 90 46
3 52 55 43
3 56 60 57
3 59 94 60
3 60 94 61
3 57 60 62
3 64 68 65
3 67 100 68
3 68 100 54
3 65 68 51
3 69 73 70
3 72 104 73
3 73 104 59
3 70 73 56
3 74 78 75
3 77 108 78
3 78 108 67
3 75 78 64
3 49 80 79
3 48 111 80
3 80 111 72
3 79 80 69
3 62 82 81
3 61 113 82
3 82 113 77
3 81 82 74
3 83 86 84
3 85 432 86
3 86 432 87
3 84 86 88
3 89 92 90
3 91 436 92
3 92 436 85
3 90 92 83
3 93 96 94
3 95 439 96
3 96 439 97
3 94 96 98
3 99 102 100
3 101 443 102
3 102 443 91
3 100 102 89
3 103 106 104
3 105 446 106
3 106 446 95
3 104 106 93
3 107 110 108
3 109 449 110
3 110 449 101
3 108 110 99
3 88 112 111
3 87 451 112
3 112 451 105
3 111 112 103
3 98 114 113
3 97 453 114
3 114 453 109
3 113 114 107
3 38 116 115
3 116 123 117
3 115 117 118
3 32 115 119
3 42 121 120
3 121 133 122
3 120 122 123
3 37 120 116
3 124 126 15
3 125 127 126
3 127 144 128
3 126 128 8
3 129 131 130
3 131 156 132
3 130 132 133
3 41 130 121
3 27 136 134
3 135 159 134
3 134 159 125
3 20 134 124
3 137 139 5
3 138 140 139
3 140 156 131
3 139 131 129
3 119 142 141
3 118 143 142
3 143 135 136
3 142 136 27
3 128 145 11
3 144 146 145
3 146 138 137
3 145 137 3
3 147 148 117
3 45 44 148
3 148 44 50
3 148 149 118
3 150 151 122
3 53 52 151
3 151 52 45
3 122 151 147
3 152 153 127
3 58 57 153
3 153 57 63
3 127 153 154
3 155 157 132
3 66 65 157
3 157 65 53
3 132 157 150
3 158 160 159
3 71 70 160
3 160 70 58
3 160 152 125
3 161 162 140
3 76 75 162
3 162 75 66
3 140 162 155
3 149 163 143
3 50 79 163
3 79 71 158
3 163 158 135
3 154 164 146
3 63 81 164
3 164 81 76
3 146 164 161
3 1 7 172
3 167 16 18
3 24 23 165
3 165 23 16
3 168 28 30
3 169 30 24
3 170 33 35
3 171 35 28
3 172 7 40
3 173 40 33
3 174 178 175
3 177 179 178
3 179 215 180
3 178 180 181
3 182 186 183
3 185 187 183
3 187 177 174
3 183 174 176
3 188 191 189
3 191 206 192
3 189 192 193
3 189 194 195
3 196 199 197
3 199 212 200
3 200 185 186
3 197 186 182
3 201 204 202
3 204 425 205
3 202 205 206
3 202 191 188
3 207 210 208
3 210 220 211
3 208 211 212
3 208 199 196
3 181 180 213
3 215 216 213
3 216 425 204
3 213 204 201
3 195 194 217
3 194 193 219
3 217 219 220
3 217 210 207
3 221 225 222
3 221 251 224
3 225 224 226
3 225 227 228
3 227 231 229
3 227 226 230
3 230 269 232
3 229 231 232
3 234 238 235
3 237 239 235
3 239 244 240
3 236 235 240
3 241 240 242
3 244 245 242
3 245 257 246
3 243 242 246
3 246 250 248
3 246 257 249
3 250 249 251
3 250 221 223
3 244 254 252
3 253 255 252
3 255 292 256
3 245 252 256
3 256 259 249
3 256 292 258
3 259 258 260
3 259 261 251
3 261 263 224
3 261 260 262
3 263 262 264
3 263 265 226
3 265 267 230
3 265 264 266
3 266 282 268
3 230 267 268
3 270 272 239
3 271 273 272
3 273 253 254
3 239 272 254
3 274 276 262
3 274 295 275
3 276 275 277
3 276 278 264
3 278 280 266
3 278 277 279
3 279 317 281
3 266 280 281
3 283 285 273
3 284 286 285
3 286 289 287
3 273 285 287
3 253 287 288
3 289 290 288
3 290 305 291
3 255 288 291
3 291 294 258
3 291 305 293
3 294 293 295
3 294 274 260
3 284 298 296
3 297 299 296
3 299 302 300
3 286 296 300
3 289 300 301
3 302 303 301
3 303 319 304
3 290 301 304
3 304 307 293
3 304 319 306
3 307 306 308
3 307 309 295
3 309 311 275
3 309 308 310
3 311 310 312
3 311 313 277
3 313 315 279
3 313 312 314
3 314 331 316
3 279 315 316
3 318 321 306
3 318 353 320
3 321 320 322
3 321 323 308
3 323 325 310
3 323 322 324
3 325 324 326
3 325 327 312
3 327 329 314
3 327 326 328
3 328 344 330
3 314 329 330
3 297 334 332
3 333 335 332
3 335 338 336
3 299 332 336
3 302 336 337
3 338 339 337
3 339 353 318
3 303 337 318
3 340 342 328
3 340 360 341
3 341 378 343
3 328 342 343
3 333 346 345
3 346 379 347
3 347 350 348
3 335 345 348
3 338 348 349
3 350 351 349
3 351 366 352
3 339 349 352
3 352 355 320
3 352 366 354
3 355 354 356
3 355 357 322
3 357 359 324
3 357 356 358
3 359 358 360
3 359 340 326
3 350 363 361
3 362 364 361
3 364 415 365
3 351 361 365
3 365 368 354
3 365 415 367
3 368 367 369
3 368 370 356
3 370 372 358
3 370 369 371
3 372 371 373
3 372 374 360
3 374 376 341
3 374 373 375
3 375 398 377
3 341 376 377
3 379 381 380
3 381 404 382
3 382 362 363
3 347 380 363
3 233 232 383
3 269 385 383
3 384 383 385
3 269 268 387
3 282 388 387
3 385 387 388
3 282 281 389
3 317 390 389
3 388 389 390
3 317 316 391
3 331 392 391
3 390 391 392
3 331 330 393
3 344 394 393
3 392 393 394
3 344 343 395
3 378 396 395
3 394 395 396
3 378 377 397
3 398 399 397
3 396 397 399
3 400 401 371
3 400 223 222
3 401 222 228
3 401 402 373
3 403 405 187
3 404 381 405
3 381 379 406
3 405 406 177
3 402 407 375
3 402 228 229
3 229 233 408
3 375 407 408
3 404 410 409
3 234 236 409
3 236 241 411
3 382 409 411
3 398 408 412
3 233 384 412
3 399 412 384
3 362 411 413
3 241 243 413
3 243 247 414
3 364 413 414
3 414 416 367
3 414 247 248
3 416 248 223
3 416 400 369
3 417 418 200
3 234 410 418
3 410 404 403
3 418 403 185
3 220 420 419
3 420 237 238
3 419 238 234
3 211 419 417
3 193 422 421
3 422 271 270
3 421 270 237
3 219 421 420
3 206 424 423
3 424 284 283
3 423 283 271
3 192 423 422
3 205 426 424
3 425 427 426
3 427 297 298
3 426 298 284
3 428 429 216
3 333 334 429
3 334 297 427
3 429 427 425
3 406 430 179
3 379 346 430
3 346 333 428
3 430 428 215
3 431 433 432
3 431 176 175
3 175 181 434
3 432 433 434
3 435 437 436
3 435 182 184
3 184 176 431
3 436 437 431
3 438 440 439
3 438 188 190
3 190 195 441
3 439 440 441
3 442 444 443
3 442 196 198
3 198 182 435
3 443 444 435
3 445 447 446
3 445 201 203
3 203 188 438
3 446 447 438
3 448 450 449
3 448 207 209
3 209 196 442
3 449 450 442
3 434 452 451
3 434 181 214
3 214 201 445
3 451 452 445
3 441 454 453
3 441 195 218
3 218 207 448
3 453 454 448
