ply
format ascii 1.0
comment Created by Blender 2.81 (sub 16) - www.blender.org, source file: ''
element vertex 459
property float x
property float y
property float z
element face 895
property list uchar uint vertex_indices
end_header
-0.245146 0.075350 0.154553
-0.226967 0.117613 0.109187
-0.256443 0.133531 0.118646
-0.233936 0.002160 0.166153
-0.221083 0.065749 0.142205
-0.215245 0.002260 0.153369
-0.190808 0.057588 0.130509
-0.192691 0.103879 0.100227
-0.193548 0.133275 0.053778
-0.229646 0.147862 0.056826
-0.193720 0.143403 -0.001000
-0.230182 0.157471 -0.005178
-0.193660 0.133573 -0.055232
-0.229996 0.148886 -0.065532
-0.192898 0.104285 -0.100232
-0.227614 0.119482 -0.113746
-0.235774 0.007040 -0.163242
-0.221930 0.068051 -0.141758
-0.216202 0.004113 -0.150413
-0.246772 0.080788 -0.156233
-0.191079 0.057794 -0.128659
-0.189246 0.002193 -0.138331
-0.230936 -0.067704 -0.156233
-0.213250 -0.111680 -0.113746
-0.230107 -0.126012 -0.129536
-0.213682 -0.060028 -0.141758
-0.188440 -0.053068 -0.128659
-0.188302 -0.098951 -0.100232
-0.229302 -0.161415 -0.010861
-0.213072 -0.140924 -0.065532
-0.212832 -0.149328 -0.005178
-0.229765 -0.154994 -0.078123
-0.188245 -0.127864 -0.055232
-0.188168 -0.137581 -0.001000
-0.228498 -0.124643 0.118646
-0.212591 -0.139998 0.056826
-0.212413 -0.110714 0.109187
-0.228840 -0.153376 0.059507
-0.188090 -0.127538 0.053778
-0.188034 -0.098450 0.100227
-0.212704 -0.060380 0.142205
-0.229057 -0.069399 0.154553
-0.188127 -0.052650 0.130509
-0.188940 0.002333 0.141137
-0.047408 -0.095758 -0.039682
-0.000907 -0.094202 0.000963
-0.047408 -0.103965 0.000963
-0.000907 -0.065918 -0.067323
-0.000908 -0.086749 -0.035950
0.040540 -0.059095 -0.060500
0.040540 -0.077845 -0.032262
0.040540 -0.084554 0.000963
-0.047408 -0.095758 0.041608
-0.000907 -0.065918 0.069249
-0.047408 -0.072821 0.076152
-0.000908 -0.086749 0.037877
0.040540 -0.077845 0.034189
0.040540 -0.059095 0.062426
-0.047408 0.100494 -0.039682
-0.000907 0.070654 -0.067323
-0.047408 0.077557 -0.074226
-0.000907 0.098939 0.000963
-0.000908 0.091485 -0.035950
0.040540 0.089290 0.000963
0.040540 0.082581 -0.032262
0.040540 0.063831 -0.060500
-0.047408 -0.038277 0.099089
-0.000907 0.002368 0.097534
-0.047408 0.002368 0.107297
-0.000908 -0.034545 0.090080
0.040540 -0.030857 0.081176
0.040540 0.002368 0.087885
-0.047408 0.043013 -0.097163
-0.000907 0.002368 -0.095607
-0.047408 0.002368 -0.105370
-0.000908 0.039281 -0.088153
0.040540 0.035593 -0.079250
0.040540 0.002368 -0.085959
-0.047408 0.043013 0.099089
-0.000907 0.070654 0.069249
-0.047408 0.077557 0.076152
-0.000908 0.039281 0.090080
0.040540 0.035593 0.081176
0.040540 0.063831 0.062426
-0.047408 -0.038277 -0.097163
-0.047408 -0.072821 -0.074226
-0.000908 -0.034545 -0.088153
0.040540 -0.030857 -0.079250
-0.047408 0.100494 0.041609
-0.047408 0.108702 0.000963
-0.000908 0.091485 0.037877
0.040540 0.082581 0.034189
0.059107 -0.078173 0.000963
0.059107 -0.054583 -0.055988
0.059107 -0.071957 -0.029823
0.063393 -0.052179 -0.053584
0.063393 -0.068819 -0.028524
0.063393 -0.074774 0.000963
0.059107 -0.054583 0.057914
0.059107 -0.071957 0.031750
0.063393 -0.068819 0.030450
0.063393 -0.052179 0.055511
0.059107 0.059319 -0.055988
0.059107 0.082909 0.000963
0.059107 0.076693 -0.029823
0.063393 0.079510 0.000963
0.063393 0.073556 -0.028523
0.063393 0.056915 -0.053584
0.059107 0.002368 0.081505
0.059107 -0.028418 0.075288
0.063393 -0.027119 0.072151
0.063393 0.002368 0.078105
0.059107 0.002368 -0.079578
0.059107 0.033154 -0.073361
0.063393 0.031855 -0.070224
0.063393 0.002368 -0.076178
0.059107 0.059319 0.057914
0.059107 0.033154 0.075288
0.063393 0.031855 0.072151
0.063393 0.056915 0.055511
0.059107 -0.028418 -0.073361
0.063393 -0.027119 -0.070224
0.059107 0.076693 0.031750
0.063393 0.073556 0.030450
-0.150957 -0.116908 -0.048704
-0.150947 -0.126718 0.000718
-0.150964 -0.089343 -0.090490
-0.112127 -0.082634 -0.083937
-0.112127 -0.108496 -0.044950
-0.112127 -0.117760 0.000963
-0.150937 -0.116850 0.050221
-0.150930 -0.089142 0.092279
-0.112127 -0.108488 0.046882
-0.112127 -0.082576 0.085907
-0.151538 0.093877 -0.090490
-0.151633 0.121731 -0.048704
-0.151641 0.131590 0.000718
-0.112126 0.113217 -0.044950
-0.112127 0.087253 -0.083936
-0.150942 -0.047165 0.120136
-0.151043 0.002364 0.130078
-0.112126 -0.043550 0.111820
-0.112127 0.002368 0.121092
-0.151311 0.051553 -0.117920
-0.151082 0.001792 -0.127625
-0.112127 0.048118 -0.109767
-0.112127 0.002135 -0.118990
-0.151512 0.093965 0.092279
-0.151277 0.051926 0.120136
-0.112126 0.048286 0.111820
-0.112127 0.087312 0.085907
-0.150981 -0.047615 -0.117920
-0.112127 -0.043718 -0.109767
-0.151619 0.121711 0.050221
-0.112126 0.113224 0.046882
-0.112127 0.122496 0.000963
-0.081315 -0.111077 0.000963
-0.081315 -0.102322 -0.042399
-0.081315 -0.077850 0.081181
-0.081315 -0.102321 0.044327
-0.081315 0.082578 -0.079249
-0.081315 0.115813 0.000963
-0.081315 0.107056 -0.042399
-0.081315 0.002368 0.114408
-0.081315 -0.040995 0.105652
-0.081315 0.002339 -0.112460
-0.081315 0.045711 -0.103709
-0.081315 0.082586 0.081181
-0.081315 0.045732 0.105652
-0.081315 -0.077857 -0.079249
-0.081315 -0.041016 -0.103710
-0.081315 0.107057 0.044327
-0.253430 0.009940 -0.180366
-0.246460 -0.075587 -0.175049
-0.245999 -0.142614 -0.148937
-0.245812 -0.171530 -0.091409
-0.245166 -0.175942 -0.016566
-0.244472 -0.169370 0.062384
-0.243717 -0.141102 0.129310
-0.256356 -0.086384 0.183094
-0.243761 -0.078667 0.167447
-0.250778 0.002301 0.179114
0.068199 -0.073961 0.000963
0.069689 -0.070200 -0.029102
0.069689 -0.076269 0.000956
0.068199 -0.051605 -0.053010
0.068199 -0.068070 -0.028213
0.069689 -0.053237 -0.054649
0.071510 -0.072980 -0.030303
0.071510 -0.079282 0.000908
0.068199 -0.051605 0.054936
0.069689 -0.070200 0.031015
0.069689 -0.053237 0.056562
0.068199 -0.068070 0.030140
0.071510 -0.072980 0.032119
0.071510 -0.055367 0.058645
0.068199 0.056341 -0.053010
0.069689 0.074936 -0.029102
0.069689 0.057973 -0.054649
0.068199 0.078697 0.000963
0.068199 0.072806 -0.028213
0.071510 0.084022 0.000908
0.071510 0.077719 -0.030302
0.071510 0.060106 -0.056828
0.068199 0.002368 0.077293
0.069689 -0.027690 0.073525
0.069689 0.002368 0.079594
0.068199 -0.026808 0.071401
0.071510 -0.028841 0.076258
0.071510 0.002370 0.082560
0.068199 0.002368 -0.075366
0.069689 0.032427 -0.071612
0.069689 0.002368 -0.077681
0.068199 0.031544 -0.069474
0.071510 0.033580 -0.074441
0.071510 0.002370 -0.080744
0.068199 0.056341 0.054936
0.069689 0.032427 0.073525
0.069689 0.057973 0.056562
0.068199 0.031544 0.071401
0.071510 0.033580 0.076258
0.071510 0.060106 0.058645
0.069689 -0.027690 -0.071612
0.068199 -0.026808 -0.069475
0.071510 -0.028841 -0.074441
0.071510 -0.055367 -0.056828
0.069689 0.074936 0.031015
0.069689 0.081006 0.000956
0.068199 0.072806 0.030140
0.071510 0.077719 0.032119
0.232466 0.002377 0.100069
0.210339 0.044612 0.102599
0.210339 0.002377 0.111127
0.251868 0.002377 0.085202
0.232466 0.040385 0.092394
0.251868 0.062176 0.060433
0.232466 0.072688 0.070945
0.210339 0.080508 0.078765
0.267734 0.002377 0.067280
0.251868 0.034703 0.078675
0.279154 0.020698 0.044865
0.267723 0.027877 0.062196
0.267734 0.049503 0.047760
0.082976 0.002376 0.091103
0.095975 0.040664 0.093075
0.082976 0.036936 0.084124
0.095975 0.002377 0.100807
0.114142 0.044612 0.102599
0.095975 0.073205 0.071469
0.082976 0.066308 0.064621
0.114142 0.002377 0.111127
0.136603 0.047211 0.108872
0.136603 0.002377 0.117926
0.161353 0.048092 0.111000
0.136603 0.085315 0.083572
0.114142 0.080508 0.078765
0.186324 0.002377 0.117926
0.161353 0.002377 0.120231
0.186324 0.047211 0.108872
0.186324 0.085315 0.083572
0.161353 0.086945 0.085202
0.136603 0.110615 0.045468
0.114142 0.104342 0.042869
0.161353 0.112743 0.046349
0.136603 0.119669 0.000634
0.114142 0.112870 0.000634
0.186324 0.110615 0.045468
0.210339 0.112870 0.000634
0.186324 0.119669 0.000634
0.161353 0.121974 0.000634
0.210339 0.104342 0.042869
0.232466 0.094137 0.038642
0.251868 0.086945 0.000634
0.232466 0.101812 0.000634
0.251868 0.080418 0.032960
0.279154 0.046609 0.018955
0.267723 0.063939 0.026134
0.267734 0.069023 0.000634
0.082976 0.085811 0.035249
0.095975 0.094811 0.038929
0.095975 0.102542 0.000641
0.082976 0.092789 0.000689
0.210339 0.104342 -0.041601
0.232466 0.094137 -0.037374
0.251868 0.062176 -0.059164
0.232466 0.072688 -0.069677
0.210339 0.080508 -0.077496
0.251868 0.080418 -0.031691
0.279154 0.046609 -0.017687
0.267723 0.063939 -0.024866
0.267734 0.049503 -0.046492
0.082976 0.085811 -0.033871
0.114142 0.104342 -0.041601
0.095975 0.094811 -0.037647
0.095975 0.073205 -0.070187
0.082976 0.066308 -0.063243
0.136603 0.110615 -0.044200
0.161353 0.112743 -0.045081
0.136603 0.085315 -0.082304
0.114142 0.080508 -0.077496
0.186324 0.110615 -0.044200
0.186324 0.085315 -0.082304
0.161353 0.086945 -0.083934
0.095975 0.040664 -0.091793
0.082976 0.036936 -0.082746
0.114142 0.044612 -0.101331
0.095975 0.002377 -0.099525
0.082976 0.002376 -0.089725
0.136603 0.047211 -0.107604
0.161353 0.048092 -0.109732
0.136603 0.002377 -0.116657
0.114142 0.002377 -0.109859
0.186324 0.047211 -0.107604
0.210339 0.002377 -0.109859
0.186324 0.002377 -0.116657
0.161353 0.002377 -0.118963
0.210339 0.044612 -0.101331
0.232466 0.040385 -0.091126
0.251868 0.002377 -0.083934
0.232466 0.002377 -0.098801
0.251868 0.034703 -0.077407
0.279154 0.020698 -0.043597
0.267723 0.027877 -0.060928
0.267734 0.002377 -0.066012
0.161353 -0.043338 -0.109732
0.186324 -0.042457 -0.107604
0.210339 -0.075753 -0.077496
0.186324 -0.080560 -0.082304
0.161353 -0.082191 -0.083934
0.210339 -0.039858 -0.101331
0.232466 -0.035631 -0.091126
0.251868 -0.057421 -0.059164
0.232466 -0.067934 -0.069677
0.251868 -0.029948 -0.077407
0.279154 -0.015944 -0.043597
0.267723 -0.023123 -0.060928
0.267734 -0.044749 -0.046492
0.095975 -0.035911 -0.091793
0.082976 -0.032184 -0.082746
0.114142 -0.039858 -0.101331
0.095975 -0.068451 -0.070187
0.082976 -0.061557 -0.063243
0.136603 -0.042457 -0.107604
0.136603 -0.080560 -0.082304
0.114142 -0.075753 -0.077496
0.251868 -0.075663 -0.031691
0.279154 -0.041854 -0.017687
0.267723 -0.059185 -0.024866
0.267734 -0.064269 0.000634
0.251868 -0.082191 0.000634
0.095975 -0.090057 -0.037647
0.082976 -0.081060 -0.033871
0.114142 -0.099588 -0.041601
0.095975 -0.097789 0.000641
0.082976 -0.088038 0.000689
0.136603 -0.105861 -0.044200
0.161353 -0.107989 -0.045081
0.136603 -0.114914 0.000634
0.114142 -0.108116 0.000634
0.186324 -0.105861 -0.044200
0.210339 -0.108116 0.000634
0.186324 -0.114914 0.000634
0.161353 -0.117220 0.000634
0.210339 -0.099588 -0.041601
0.232466 -0.089383 -0.037374
0.232466 -0.097058 0.000634
0.136603 -0.105861 0.045468
0.114142 -0.099588 0.042869
0.161353 -0.107989 0.046349
0.136603 -0.080561 0.083572
0.114142 -0.075753 0.078765
0.186324 -0.105861 0.045468
0.210339 -0.075753 0.078765
0.186324 -0.080561 0.083572
0.161353 -0.082191 0.085202
0.210339 -0.099588 0.042869
0.232466 -0.089383 0.038642
0.251868 -0.057421 0.060433
0.232466 -0.067934 0.070945
0.251868 -0.075663 0.032960
0.279154 -0.041854 0.018955
0.267723 -0.059185 0.026134
0.267734 -0.044749 0.047760
0.095975 -0.090057 0.038928
0.082976 -0.081060 0.035249
0.095975 -0.068451 0.071469
0.082976 -0.061557 0.064621
0.279247 0.002377 0.048047
0.285000 0.014812 0.030655
0.285968 0.022119 0.020376
0.285968 0.002377 0.028553
0.289105 0.002377 0.000634
0.279247 0.035903 0.034160
0.285000 0.032398 0.013069
0.285968 0.030296 0.000634
0.279246 0.049790 0.000634
0.285000 0.032398 -0.011801
0.285968 0.022119 -0.019108
0.279247 0.035903 -0.032892
0.285000 0.014812 -0.029387
0.285968 0.002377 -0.027285
0.279247 0.002377 -0.046779
0.285000 -0.010058 -0.029387
0.285968 -0.017365 -0.019108
0.279247 -0.031149 -0.032892
0.285000 -0.027644 -0.011801
0.285968 -0.025542 0.000634
0.279247 -0.045036 0.000634
0.285000 -0.027644 0.013069
0.285968 -0.017365 0.020376
0.279247 -0.031149 0.034160
0.210339 -0.039858 0.102599
0.232466 -0.035631 0.092394
0.075319 -0.057597 0.060768
0.075319 -0.075891 0.033216
0.075319 -0.082437 0.000799
0.251868 -0.029948 0.078675
0.279154 -0.015944 0.044866
0.267723 -0.023123 0.062196
0.095975 -0.035911 0.093075
0.082976 -0.032184 0.084124
0.114142 -0.039858 0.102599
0.285000 -0.010058 0.030655
0.136603 -0.042457 0.108872
0.161353 -0.043338 0.111000
0.186324 -0.042457 0.108872
0.075319 0.002373 0.085608
0.075319 -0.030045 0.079062
0.075319 0.034790 0.079062
0.075319 0.062342 0.060768
0.075319 0.080636 0.033217
0.075319 0.087182 0.000799
0.075319 0.080636 -0.031619
0.075319 0.062342 -0.059171
0.075319 0.034790 -0.077465
0.075319 0.002373 -0.084011
0.075319 -0.057597 -0.059171
0.075319 -0.030045 -0.077465
0.075319 -0.075891 -0.031619
0.065884 -0.073412 0.000963
0.065884 -0.051217 -0.052622
0.065884 -0.067563 -0.028003
0.065884 -0.051217 0.054548
0.065884 -0.067563 0.029930
0.065884 0.055953 -0.052622
0.065884 0.078148 0.000963
0.065884 0.072299 -0.028003
0.065884 0.002368 0.076744
0.065884 -0.026598 0.070895
0.065884 0.002368 -0.074817
0.065884 0.031335 -0.068968
0.065884 0.055953 0.054548
0.065884 0.031335 0.070895
0.065884 -0.026598 -0.068968
0.065884 0.072299 0.029930
-0.261585 0.164129 0.059507
-0.262258 0.166254 -0.078123
-0.262616 0.172781 -0.010861
-0.257685 0.137606 -0.129536
3 0 1 2
3 3 4 0
3 5 6 4
3 4 7 1
3 1 8 9
3 9 10 11
3 11 12 13
3 13 14 15
3 16 17 18
3 19 15 17
3 17 14 20
3 18 20 21
3 22 23 24
3 22 18 25
3 25 21 26
3 25 27 23
3 28 29 30
3 31 23 29
3 29 27 32
3 30 32 33
3 34 35 36
3 37 30 35
3 35 33 38
3 36 38 39
3 3 40 5
3 41 36 40
3 40 39 42
3 5 42 43
3 44 45 46
3 44 47 48
3 48 49 50
3 48 51 45
3 52 53 54
3 52 45 55
3 55 51 56
3 55 57 53
3 58 59 60
3 58 61 62
3 62 63 64
3 62 65 59
3 66 67 68
3 66 53 69
3 69 57 70
3 69 71 67
3 72 73 74
3 72 59 75
3 75 65 76
3 75 77 73
3 78 79 80
3 78 67 81
3 81 71 82
3 81 83 79
3 84 47 85
3 84 73 86
3 86 77 87
3 86 49 47
3 88 61 89
3 88 79 90
3 90 83 91
3 90 63 61
3 50 92 51
3 50 93 94
3 94 95 96
3 94 97 92
3 56 98 57
3 56 92 99
3 99 97 100
3 99 101 98
3 64 102 65
3 64 103 104
3 104 105 106
3 104 107 102
3 70 108 71
3 70 98 109
3 109 101 110
3 109 111 108
3 76 112 77
3 76 102 113
3 113 107 114
3 113 115 112
3 82 116 83
3 82 108 117
3 117 111 118
3 117 119 116
3 87 93 49
3 87 112 120
3 120 115 121
3 120 95 93
3 91 103 63
3 91 116 122
3 122 119 123
3 122 105 103
3 33 124 125
3 32 126 124
3 124 127 128
3 125 128 129
3 39 130 131
3 38 125 130
3 130 129 132
3 131 132 133
3 12 134 14
3 10 135 12
3 136 137 135
3 135 138 134
3 43 139 140
3 42 131 139
3 139 133 141
3 140 141 142
3 21 143 144
3 20 134 143
3 143 138 145
3 143 146 144
3 6 147 7
3 43 148 6
3 140 149 148
3 148 150 147
3 26 126 27
3 21 151 26
3 144 152 151
3 151 127 126
3 8 136 10
3 7 153 8
3 147 154 153
3 153 155 136
3 128 156 129
3 127 157 128
3 157 85 44
3 157 46 156
3 132 158 133
3 132 156 159
3 159 46 52
3 159 54 158
3 137 160 138
3 137 161 162
3 162 89 58
3 162 60 160
3 141 163 142
3 141 158 164
3 164 54 66
3 164 68 163
3 145 165 146
3 138 166 145
3 166 60 72
3 166 74 165
3 149 167 150
3 149 163 168
3 168 68 78
3 168 80 167
3 152 169 127
3 146 170 152
3 165 84 170
3 170 85 169
3 154 161 155
3 154 167 171
3 171 80 88
3 171 89 161
3 172 19 16
3 173 16 22
3 173 24 174
3 175 24 31
3 176 31 28
3 177 28 37
3 178 37 34
3 179 178 180
3 180 34 41
3 181 41 3
3 182 183 184
3 185 183 186
3 187 188 183
3 183 189 184
3 190 191 192
3 182 191 193
3 184 194 191
3 191 195 192
3 196 197 198
3 199 197 200
3 197 201 202
3 198 202 203
3 204 205 206
3 190 205 207
3 192 208 205
3 206 208 209
3 210 211 212
3 196 211 213
3 211 203 214
3 212 214 215
3 216 217 218
3 204 217 219
3 217 209 220
3 218 220 221
3 185 222 187
3 210 222 223
3 212 224 222
3 222 225 187
3 199 226 227
3 216 226 228
3 226 221 229
3 227 229 201
3 230 231 232
3 233 234 230
3 234 235 236
3 231 236 237
3 238 239 233
3 238 240 241
3 240 242 241
3 239 242 235
3 243 244 245
3 246 247 244
3 247 248 244
3 244 249 245
3 250 251 247
3 252 253 251
3 253 254 251
3 251 255 247
3 256 253 257
3 232 258 256
3 258 237 259
3 253 259 260
3 255 261 262
3 254 263 261
3 263 264 261
3 261 265 262
3 259 263 260
3 237 266 259
3 266 267 268
3 263 268 269
3 236 270 237
3 235 271 236
3 271 272 273
3 270 273 267
3 242 274 235
3 242 275 276
3 275 277 276
3 274 277 272
3 248 278 249
3 248 262 279
3 262 280 279
3 279 281 278
3 273 282 267
3 272 283 273
3 283 284 285
3 282 285 286
3 277 287 272
3 277 288 289
3 288 290 289
3 287 290 284
3 280 291 281
3 280 292 293
3 292 294 293
3 293 295 291
3 265 296 292
3 264 297 296
3 297 298 296
3 296 299 292
3 268 297 269
3 267 300 268
3 300 286 301
3 297 301 302
3 295 303 304
3 294 305 303
3 305 306 303
3 303 307 304
3 299 308 305
3 298 309 308
3 309 310 308
3 308 311 305
3 301 309 302
3 286 312 301
3 312 313 314
3 309 314 315
3 285 316 286
3 284 317 285
3 317 318 319
3 316 319 313
3 290 320 284
3 290 321 322
3 321 323 322
3 320 323 318
3 314 324 315
3 313 325 314
3 325 326 327
3 324 327 328
3 319 329 313
3 318 330 319
3 330 331 332
3 329 332 326
3 323 333 318
3 323 334 335
3 334 336 335
3 333 336 331
3 307 337 338
3 306 339 337
3 339 340 337
3 337 341 338
3 311 342 339
3 310 324 342
3 324 343 342
3 342 344 339
3 336 345 331
3 336 346 347
3 346 348 347
3 345 348 349
3 341 350 351
3 340 352 350
3 352 353 350
3 351 353 354
3 344 355 352
3 343 356 355
3 356 357 355
3 355 358 352
3 327 356 328
3 326 359 327
3 359 360 361
3 356 361 362
3 332 363 326
3 331 364 332
3 364 349 365
3 363 365 360
3 358 366 367
3 357 368 366
3 368 369 366
3 366 370 367
3 361 368 362
3 360 371 361
3 371 372 373
3 368 373 374
3 365 375 360
3 349 376 365
3 376 377 378
3 375 378 372
3 348 379 349
3 348 380 381
3 380 382 381
3 379 382 377
3 354 383 384
3 353 367 383
3 367 385 383
3 384 385 386
3 387 388 240
3 389 390 391
3 392 388 389
3 392 393 275
3 394 389 391
3 395 393 394
3 395 396 288
3 397 394 391
3 398 396 397
3 398 399 321
3 400 397 391
3 401 399 400
3 401 402 334
3 403 400 391
3 404 402 403
3 404 405 346
3 406 403 391
3 407 405 406
3 407 408 380
3 409 406 391
3 410 408 409
3 378 411 372
3 377 412 378
3 412 233 230
3 411 230 232
3 194 413 195
3 189 414 194
3 415 384 414
3 414 386 413
3 382 416 377
3 382 417 418
3 417 238 418
3 416 238 233
3 386 419 420
3 385 421 419
3 421 246 419
3 419 243 420
3 410 422 417
3 390 409 391
3 387 422 390
3 370 423 421
3 369 424 423
3 424 252 423
3 423 250 421
3 373 424 374
3 372 425 373
3 425 232 256
3 424 256 257
3 208 426 209
3 195 427 208
3 413 420 427
3 427 243 426
3 221 428 429
3 220 426 428
3 428 243 245
3 429 245 249
3 201 430 431
3 229 429 430
3 430 249 278
3 431 278 281
3 203 432 433
3 202 431 432
3 432 281 291
3 433 291 295
3 433 214 203
3 295 434 433
3 304 435 434
3 434 215 214
3 224 436 225
3 215 437 224
3 435 338 437
3 437 341 436
3 188 415 189
3 225 438 188
3 436 351 438
3 438 354 415
3 96 439 97
3 96 440 441
3 440 186 441
3 439 186 182
3 100 442 101
3 100 439 443
3 439 193 443
3 442 193 190
3 106 444 107
3 106 445 446
3 445 200 446
3 444 200 196
3 110 447 111
3 110 442 448
3 442 207 448
3 447 207 204
3 114 449 115
3 114 444 450
3 444 213 450
3 449 213 210
3 118 451 119
3 118 447 452
3 447 219 452
3 451 219 216
3 121 440 95
3 121 449 453
3 449 223 453
3 440 223 185
3 123 445 105
3 123 451 454
3 451 228 454
3 445 228 199
3 0 4 1
3 3 5 4
3 5 43 6
3 4 6 7
3 455 9 11
3 2 1 9
3 1 7 8
3 9 8 10
3 456 13 15
3 457 11 13
3 11 10 12
3 13 12 14
3 16 19 17
3 19 458 15
3 17 15 14
3 18 17 20
3 22 25 23
3 22 16 18
3 25 18 21
3 25 26 27
3 28 31 29
3 31 24 23
3 29 23 27
3 30 29 32
3 34 37 35
3 37 28 30
3 35 30 33
3 36 35 38
3 3 41 40
3 41 34 36
3 40 36 39
3 5 40 42
3 44 48 45
3 44 85 47
3 48 47 49
3 48 50 51
3 52 55 53
3 52 46 45
3 55 45 51
3 55 56 57
3 58 62 59
3 58 89 61
3 62 61 63
3 62 64 65
3 66 69 67
3 66 54 53
3 69 53 57
3 69 70 71
3 72 75 73
3 72 60 59
3 75 59 65
3 75 76 77
3 78 81 79
3 78 68 67
3 81 67 71
3 81 82 83
3 84 86 47
3 84 74 73
3 86 73 77
3 86 87 49
3 88 90 61
3 88 80 79
3 90 79 83
3 90 91 63
3 50 94 92
3 50 49 93
3 94 93 95
3 94 96 97
3 56 99 98
3 56 51 92
3 99 92 97
3 99 100 101
3 64 104 102
3 64 63 103
3 104 103 105
3 104 106 107
3 70 109 108
3 70 57 98
3 109 98 101
3 109 110 111
3 76 113 112
3 76 65 102
3 113 102 107
3 113 114 115
3 82 117 116
3 82 71 108
3 117 108 111
3 117 118 119
3 87 120 93
3 87 77 112
3 120 112 115
3 120 121 95
3 91 122 103
3 91 83 116
3 122 116 119
3 122 123 105
3 33 32 124
3 32 27 126
3 124 126 127
3 125 124 128
3 39 38 130
3 38 33 125
3 130 125 129
3 131 130 132
3 12 135 134
3 10 136 135
3 136 155 137
3 135 137 138
3 43 42 139
3 42 39 131
3 139 131 133
3 140 139 141
3 21 20 143
3 20 14 134
3 143 134 138
3 143 145 146
3 6 148 147
3 43 140 148
3 140 142 149
3 148 149 150
3 26 151 126
3 21 144 151
3 144 146 152
3 151 152 127
3 8 153 136
3 7 147 153
3 147 150 154
3 153 154 155
3 128 157 156
3 127 169 157
3 157 169 85
3 157 44 46
3 132 159 158
3 132 129 156
3 159 156 46
3 159 52 54
3 137 162 160
3 137 155 161
3 162 161 89
3 162 58 60
3 141 164 163
3 141 133 158
3 164 158 54
3 164 66 68
3 145 166 165
3 138 160 166
3 166 160 60
3 166 72 74
3 149 168 167
3 149 142 163
3 168 163 68
3 168 78 80
3 152 170 169
3 146 165 170
3 165 74 84
3 170 84 85
3 154 171 161
3 154 150 167
3 171 167 80
3 171 88 89
3 181 3 0
3 173 172 16
3 173 22 24
3 175 174 24
3 176 175 31
3 177 176 28
3 178 177 37
3 180 178 34
3 181 180 41
3 182 186 183
3 185 187 183
3 187 225 188
3 183 188 189
3 190 193 191
3 182 184 191
3 184 189 194
3 191 194 195
3 196 200 197
3 199 227 197
3 197 227 201
3 198 197 202
3 204 207 205
3 190 192 205
3 192 195 208
3 206 205 208
3 210 213 211
3 196 198 211
3 211 198 203
3 212 211 214
3 216 219 217
3 204 206 217
3 217 206 209
3 218 217 220
3 185 223 222
3 210 212 222
3 212 215 224
3 222 224 225
3 199 228 226
3 216 218 226
3 226 218 221
3 227 226 229
3 230 234 231
3 233 239 234
3 234 239 235
3 231 234 236
3 238 241 239
3 238 387 240
3 240 392 242
3 239 241 242
3 243 246 244
3 246 250 247
3 247 255 248
3 244 248 249
3 250 252 251
3 252 257 253
3 253 260 254
3 251 254 255
3 256 258 253
3 232 231 258
3 258 231 237
3 253 258 259
3 255 254 261
3 254 260 263
3 263 269 264
3 261 264 265
3 259 266 263
3 237 270 266
3 266 270 267
3 263 266 268
3 236 271 270
3 235 274 271
3 271 274 272
3 270 271 273
3 242 276 274
3 242 392 275
3 275 395 277
3 274 276 277
3 248 279 278
3 248 255 262
3 262 265 280
3 279 280 281
3 273 283 282
3 272 287 283
3 283 287 284
3 282 283 285
3 277 289 287
3 277 395 288
3 288 398 290
3 287 289 290
3 280 293 291
3 280 265 292
3 292 299 294
3 293 294 295
3 265 264 296
3 264 269 297
3 297 302 298
3 296 298 299
3 268 300 297
3 267 282 300
3 300 282 286
3 297 300 301
3 295 294 303
3 294 299 305
3 305 311 306
3 303 306 307
3 299 298 308
3 298 302 309
3 309 315 310
3 308 310 311
3 301 312 309
3 286 316 312
3 312 316 313
3 309 312 314
3 285 317 316
3 284 320 317
3 317 320 318
3 316 317 319
3 290 322 320
3 290 398 321
3 321 401 323
3 320 322 323
3 314 325 324
3 313 329 325
3 325 329 326
3 324 325 327
3 319 330 329
3 318 333 330
3 330 333 331
3 329 330 332
3 323 335 333
3 323 401 334
3 334 404 336
3 333 335 336
3 307 306 337
3 306 311 339
3 339 344 340
3 337 340 341
3 311 310 342
3 310 315 324
3 324 328 343
3 342 343 344
3 336 347 345
3 336 404 346
3 346 407 348
3 345 347 348
3 341 340 350
3 340 344 352
3 352 358 353
3 351 350 353
3 344 343 355
3 343 328 356
3 356 362 357
3 355 357 358
3 327 359 356
3 326 363 359
3 359 363 360
3 356 359 361
3 332 364 363
3 331 345 364
3 364 345 349
3 363 364 365
3 358 357 366
3 357 362 368
3 368 374 369
3 366 369 370
3 361 371 368
3 360 375 371
3 371 375 372
3 368 371 373
3 365 376 375
3 349 379 376
3 376 379 377
3 375 376 378
3 348 381 379
3 348 407 380
3 380 410 382
3 379 381 382
3 354 353 383
3 353 358 367
3 367 370 385
3 384 383 385
3 387 390 388
3 389 388 390
3 392 240 388
3 392 389 393
3 394 393 389
3 395 275 393
3 395 394 396
3 397 396 394
3 398 288 396
3 398 397 399
3 400 399 397
3 401 321 399
3 401 400 402
3 403 402 400
3 404 334 402
3 404 403 405
3 406 405 403
3 407 346 405
3 407 406 408
3 409 408 406
3 410 380 408
3 378 412 411
3 377 416 412
3 412 416 233
3 411 412 230
3 194 414 413
3 189 415 414
3 415 354 384
3 414 384 386
3 382 418 416
3 382 410 417
3 417 387 238
3 416 418 238
3 386 385 419
3 385 370 421
3 421 250 246
3 419 246 243
3 410 409 422
3 390 422 409
3 387 417 422
3 370 369 423
3 369 374 424
3 424 257 252
3 423 252 250
3 373 425 424
3 372 411 425
3 425 411 232
3 424 425 256
3 208 427 426
3 195 413 427
3 413 386 420
3 427 420 243
3 221 220 428
3 220 209 426
3 428 426 243
3 429 428 245
3 201 229 430
3 229 221 429
3 430 429 249
3 431 430 278
3 203 202 432
3 202 201 431
3 432 431 281
3 433 432 291
3 433 434 214
3 295 304 434
3 304 307 435
3 434 435 215
3 224 437 436
3 215 435 437
3 435 307 338
3 437 338 341
3 188 438 415
3 225 436 438
3 436 341 351
3 438 351 354
3 96 441 439
3 96 95 440
3 440 185 186
3 439 441 186
3 100 443 442
3 100 97 439
3 439 182 193
3 442 443 193
3 106 446 444
3 106 105 445
3 445 199 200
3 444 446 200
3 110 448 447
3 110 101 442
3 442 190 207
3 447 448 207
3 114 450 449
3 114 107 444
3 444 196 213
3 449 450 213
3 118 452 451
3 118 111 447
3 447 204 219
3 451 452 219
3 121 453 440
3 121 115 449
3 449 210 223
3 440 453 223
3 123 454 445
3 123 119 451
3 451 216 228
3 445 454 228
