ply
format ascii 1.0
comment Created by Blender 2.80 (sub 75) - www.blender.org, source file: ''
element vertex 147
property float x
property float y
property float z
property float nx
property float ny
property float nz
property float s
property float t
element face 88
property list uchar uint vertex_indices
end_header
0.008443 1.220192 -0.684581 -0.548265 -0.577349 0.604999 0.000000 1.000000
-0.076766 1.220192 -0.680408 0.605029 -0.577319 0.548296 0.000000 0.000000
-0.076766 -0.913608 -0.680409 0.605029 0.577319 0.548296 1.000000 0.000000
0.075849 -0.913608 0.679429 -0.605029 0.577319 -0.548265 0.000000 1.000000
0.008443 -0.913608 -0.684581 -0.548265 0.577349 0.604999 0.000000 0.000000
-0.009360 1.220192 0.683602 0.548265 -0.577349 -0.604999 0.000000 1.000000
0.008443 1.220192 -0.684581 -0.548265 -0.577349 0.604999 1.000000 0.000000
-0.076766 1.220192 -0.680408 0.605029 -0.577319 0.548296 0.000000 1.000000
-0.009360 1.220192 0.683602 0.548265 -0.577349 -0.604999 0.000000 0.000000
-0.009360 -0.913608 0.683602 0.548265 0.577349 -0.604999 1.000000 0.000000
0.075849 1.220192 0.679429 -0.605029 -0.577319 -0.548265 0.000000 1.000000
0.008443 1.220192 -0.684581 -0.548265 -0.577349 0.604999 0.000000 0.000000
0.008443 -0.913608 -0.684581 -0.548265 0.577349 0.604999 1.000000 0.000000
0.075849 1.220192 0.679429 -0.605029 -0.577319 -0.548265 0.000000 0.000000
-0.009360 1.220192 0.683602 0.548265 -0.577349 -0.604999 1.000000 0.000000
-0.076766 -0.913608 -0.680409 0.605029 0.577319 0.548296 0.000000 1.000000
-0.009360 -0.913608 0.683602 0.548265 0.577349 -0.604999 0.000000 0.000000
0.075849 -0.913608 0.679429 -0.605029 0.577319 -0.548265 1.000000 0.000000
0.008443 -0.913608 -0.684581 -0.548265 0.577349 0.604999 0.000000 1.000000
0.075849 -0.913608 0.679429 -0.605029 0.577319 -0.548265 0.000000 0.000000
0.075849 1.220192 0.679429 -0.605029 -0.577319 -0.548265 1.000000 0.000000
-0.009360 -0.913608 0.683602 0.548265 0.577349 -0.604999 0.000000 1.000000
-0.076766 -0.913608 -0.680409 0.605029 0.577319 0.548296 0.000000 0.000000
-0.076766 1.220192 -0.680408 0.605029 -0.577319 0.548296 1.000000 0.000000
0.102978 -0.155267 -0.016339 -0.606952 0.794153 0.030152 0.000000 1.000000
0.099433 -0.112567 -0.087360 -0.551225 0.279977 0.785943 0.000000 0.000000
-0.127917 -0.112567 -0.076091 0.626820 0.280038 0.727073 1.000000 0.000000
-0.127917 -0.112567 -0.076091 0.626820 0.280038 0.727073 0.000000 1.000000
-0.124372 -0.155267 -0.005071 0.606891 0.794183 -0.030122 0.000000 0.000000
0.102978 -0.155267 -0.016339 -0.606952 0.794153 0.030152 1.000000 0.000000
0.106429 -0.112567 0.054787 -0.625935 0.279977 -0.727866 0.000000 1.000000
0.102978 -0.155267 -0.016339 -0.606952 0.794153 0.030152 0.000000 0.000000
-0.124372 -0.155267 -0.005071 0.606891 0.794183 -0.030122 1.000000 0.000000
-0.120827 -0.112567 0.065949 0.551530 0.280129 -0.785699 0.000000 1.000000
-0.122282 -0.027267 0.037583 0.572588 -0.650990 -0.498306 0.000000 0.000000
0.105067 -0.027267 0.026315 -0.618641 -0.651295 -0.439344 1.000000 0.000000
-0.124372 -0.155267 -0.005071 0.606891 0.794183 -0.030122 0.000000 1.000000
-0.120827 -0.112567 0.065949 0.551530 0.280129 -0.785699 0.000000 0.000000
0.106429 -0.112567 0.054787 -0.625935 0.279977 -0.727866 1.000000 0.000000
0.105067 -0.027267 0.026315 -0.618641 -0.651295 -0.439344 0.000000 1.000000
0.106429 -0.112567 0.054787 -0.625935 0.279977 -0.727866 0.000000 0.000000
-0.120827 -0.112567 0.065949 0.551530 0.280129 -0.785699 1.000000 0.000000
0.100894 -0.027267 -0.058894 -0.572619 -0.651326 0.497818 0.000000 1.000000
0.105067 -0.027267 0.026315 -0.618641 -0.651295 -0.439344 0.000000 0.000000
0.100894 -0.027267 -0.058894 -0.572619 -0.651326 0.497818 1.000000 0.000000
-0.122282 -0.027267 0.037583 0.572588 -0.650990 -0.498306 1.000000 0.000000
-0.126462 -0.027267 -0.047725 0.618519 -0.651326 0.439497 0.000000 1.000000
-0.127917 -0.112567 -0.076091 0.626820 0.280038 0.727073 0.000000 0.000000
0.099433 -0.112567 -0.087360 -0.551225 0.279977 0.785943 1.000000 0.000000
-0.122282 -0.027267 0.037583 0.572588 -0.650990 -0.498306 0.000000 1.000000
-0.126462 -0.027267 -0.047725 0.618519 -0.651326 0.439497 0.000000 0.000000
-0.126462 -0.027267 -0.047725 0.618519 -0.651326 0.439497 1.000000 0.000000
0.099433 -0.112567 -0.087360 -0.551225 0.279977 0.785943 0.000000 1.000000
0.100894 -0.027267 -0.058894 -0.572619 -0.651326 0.497818 0.000000 0.000000
0.144780 -1.130508 0.633229 -0.562395 0.625141 0.541185 0.000000 1.000000
0.144052 -1.059409 0.619047 -0.864589 0.366497 0.343699 0.000000 0.000000
-0.083297 -1.059409 0.630316 0.894498 0.366131 0.256417 1.000000 0.000000
0.157404 -1.130508 0.888951 -0.591754 0.447340 -0.670583 0.000000 0.000000
0.153231 -0.945609 0.803742 -0.624104 -0.671529 -0.399365 1.000000 0.000000
0.144052 -1.059409 0.619047 -0.864589 0.366497 0.343699 0.000000 1.000000
0.144780 -1.130508 0.633229 -0.562395 0.625141 0.541185 0.000000 0.000000
0.153231 -0.945609 0.803742 -0.624104 -0.671529 -0.399365 0.000000 1.000000
-0.069945 -1.130508 0.900220 0.522782 0.447249 -0.725700 1.000000 0.000000
-0.144969 -1.059409 -0.620027 0.864589 0.366497 -0.343699 0.000000 1.000000
-0.083297 -1.059409 0.630316 0.894498 0.366131 0.256417 0.000000 0.000000
0.144052 -1.059409 0.619047 -0.864589 0.366497 0.343699 1.000000 0.000000
-0.145698 -1.130508 -0.634210 0.562395 0.625141 -0.541154 0.000000 1.000000
-0.144969 -1.059409 -0.620027 0.864589 0.366497 -0.343699 0.000000 0.000000
0.082281 -1.059409 -0.631289 -0.894314 0.366192 -0.257027 1.000000 0.000000
0.082281 -1.059409 -0.631289 -0.894314 0.366192 -0.257027 0.000000 0.000000
-0.144969 -1.059409 -0.620027 0.864589 0.366497 -0.343699 1.000000 0.000000
-0.154148 -0.945609 -0.804721 0.624104 -0.671560 0.399304 0.000000 1.000000
-0.158327 -1.130508 -0.890029 0.591601 0.447157 0.670827 0.000000 0.000000
0.068929 -1.130508 -0.901193 -0.522629 0.447310 0.725761 1.000000 0.000000
-0.154148 -0.945609 -0.804721 0.624104 -0.671560 0.399304 1.000000 0.000000
-0.145698 -1.130508 -0.634210 0.562395 0.625141 -0.541154 0.000000 0.000000
0.153231 -0.945609 0.803742 -0.624104 -0.671529 -0.399365 0.000000 0.000000
0.073201 -0.945609 -0.815990 -0.581591 -0.671529 0.459059 1.000000 0.000000
0.073201 -0.945609 -0.815990 -0.581591 -0.671529 0.459059 0.000000 1.000000
0.068929 -1.130508 -0.901193 -0.522629 0.447310 0.725761 0.000000 0.000000
0.081653 -1.130508 -0.645477 -0.613239 0.625019 -0.482955 1.000000 0.000000
0.081653 -1.130508 -0.645477 -0.613239 0.625019 -0.482955 0.000000 0.000000
0.068929 -1.130508 -0.901193 -0.522629 0.447310 0.725761 0.000000 1.000000
0.073201 -0.945609 -0.815990 -0.581591 -0.671529 0.459059 0.000000 0.000000
-0.154148 -0.945609 -0.804721 0.624104 -0.671560 0.399304 0.000000 0.000000
-0.074118 -0.945609 0.815010 0.581500 -0.671621 -0.459059 1.000000 0.000000
-0.074118 -0.945609 0.815010 0.581500 -0.671621 -0.459059 0.000000 1.000000
-0.069945 -1.130508 0.900220 0.522782 0.447249 -0.725700 0.000000 0.000000
-0.082570 -1.130508 0.644498 0.613025 0.625263 0.482925 1.000000 0.000000
-0.069945 -1.130508 0.900220 0.522782 0.447249 -0.725700 0.000000 1.000000
-0.074118 -0.945609 0.815010 0.581500 -0.671621 -0.459059 0.000000 0.000000
-0.082570 -1.130508 0.644498 0.613025 0.625263 0.482925 0.000000 0.000000
0.082281 -1.059409 -0.631289 -0.894314 0.366192 -0.257027 0.000000 1.000000
-0.145698 -1.130508 -0.634210 0.562395 0.625141 -0.541154 1.000000 0.000000
-0.083297 -1.059409 0.630316 0.894498 0.366131 0.256417 0.000000 1.000000
0.144780 -1.130508 0.633229 -0.562395 0.625141 0.541185 1.000000 0.000000
0.081653 -1.130508 -0.645477 -0.613239 0.625019 -0.482955 0.000000 1.000000
-0.158327 -1.130508 -0.890029 0.591601 0.447157 0.670827 1.000000 0.000000
-0.158327 -1.130508 -0.890029 0.591601 0.447157 0.670827 0.000000 1.000000
0.032008 1.273491 -0.785434 -0.548296 -0.577319 0.604999 0.000000 1.000000
-0.110138 1.273491 -0.778439 0.605243 -0.577258 0.548082 0.000000 0.000000
-0.110138 -0.945609 -0.778439 0.605274 0.577258 0.548051 1.000000 0.000000
0.032008 -0.945609 -0.785434 -0.548326 0.577319 0.604999 0.000000 1.000000
-0.110138 -0.945609 -0.778439 0.605274 0.577258 0.548051 0.000000 0.000000
-0.032925 -0.945609 0.784455 0.548326 0.577319 -0.604999 1.000000 0.000000
-0.110138 1.273491 -0.778439 0.605243 -0.577258 0.548082 0.000000 1.000000
0.032008 1.273491 -0.785434 -0.548296 -0.577319 0.604999 0.000000 0.000000
0.109221 1.273491 0.777460 -0.605243 -0.577258 -0.548082 1.000000 0.000000
-0.032925 -0.945609 0.784455 0.548326 0.577319 -0.604999 0.000000 1.000000
-0.037098 -0.917208 0.699245 0.918119 -0.301950 0.256569 0.000000 0.000000
-0.037098 1.230892 0.699246 0.918180 0.301737 0.256569 1.000000 0.000000
0.109221 -0.945609 0.777460 -0.605274 0.577258 -0.548051 0.000000 1.000000
0.104942 1.230892 0.692157 -0.888180 0.302347 0.345958 0.000000 0.000000
0.104942 -0.917208 0.692157 -0.888058 -0.302713 0.345897 1.000000 0.000000
-0.105859 1.230892 -0.693135 0.888180 0.302347 -0.345958 0.000000 1.000000
-0.105859 -0.917208 -0.693135 0.888058 -0.302713 -0.345897 0.000000 0.000000
0.036181 -0.917208 -0.700225 -0.918119 -0.301950 -0.256569 0.000000 1.000000
0.036181 1.230892 -0.700225 -0.918180 0.301737 -0.256569 0.000000 0.000000
0.032008 -0.945609 -0.785434 -0.548326 0.577319 0.604999 1.000000 0.000000
0.036181 1.230892 -0.700225 -0.918180 0.301737 -0.256569 0.000000 1.000000
-0.105859 -0.917208 -0.693135 0.888058 -0.302713 -0.345897 0.000000 1.000000
-0.105859 1.230892 -0.693135 0.888180 0.302347 -0.345958 0.000000 0.000000
0.036181 1.230892 -0.700225 -0.918180 0.301737 -0.256569 1.000000 0.000000
-0.032925 1.273491 0.784455 0.548296 -0.577319 -0.604999 0.000000 1.000000
0.109221 1.273491 0.777460 -0.605243 -0.577258 -0.548082 0.000000 0.000000
0.109221 -0.945609 0.777460 -0.605274 0.577258 -0.548051 1.000000 0.000000
-0.037098 1.230892 0.699246 0.918180 0.301737 0.256569 0.000000 1.000000
-0.110138 1.273491 -0.778439 0.605243 -0.577258 0.548082 1.000000 0.000000
0.104942 -0.917208 0.692157 -0.888058 -0.302713 0.345897 0.000000 1.000000
0.104942 -0.917208 0.692157 -0.888058 -0.302713 0.345897 0.000000 0.000000
-0.037098 -0.917208 0.699245 0.918119 -0.301950 0.256569 1.000000 0.000000
-0.037098 1.230892 0.699246 0.918180 0.301737 0.256569 0.000000 0.000000
0.104942 1.230892 0.692157 -0.888180 0.302347 0.345958 1.000000 0.000000
-0.037098 -0.917208 0.699245 0.918119 -0.301950 0.256569 0.000000 1.000000
0.036181 -0.917208 -0.700225 -0.918119 -0.301950 -0.256569 1.000000 0.000000
-0.032925 1.273491 0.784455 0.548296 -0.577319 -0.604999 0.000000 0.000000
0.109221 -0.945609 0.777460 -0.605274 0.577258 -0.548051 0.000000 0.000000
0.036181 -0.917208 -0.700225 -0.918119 -0.301950 -0.256569 0.000000 0.000000
0.109221 1.273491 0.777460 -0.605243 -0.577258 -0.548082 0.000000 1.000000
-0.110138 -0.945609 -0.778439 0.605274 0.577258 0.548051 0.000000 1.000000
-0.105859 1.230892 -0.693135 0.888180 0.302347 -0.345958 1.000000 0.000000
-0.105859 -0.917208 -0.693135 0.888058 -0.302713 -0.345897 1.000000 0.000000
0.104942 1.230892 0.692157 -0.888180 0.302347 0.345958 0.000000 1.000000
0.032008 -0.945609 -0.785434 -0.548326 0.577319 0.604999 0.000000 0.000000
0.032008 1.273491 -0.785434 -0.548296 -0.577319 0.604999 1.000000 0.000000
-0.032925 -0.945609 0.784455 0.548326 0.577319 -0.604999 0.000000 0.000000
-0.032925 1.273491 0.784455 0.548296 -0.577319 -0.604999 1.000000 0.000000
3 0 1 2
3 3 4 2
3 5 1 6
3 7 8 9
3 10 11 12
3 0 13 14
3 15 16 17
3 15 4 6
3 3 16 14
3 5 13 17
3 18 19 20
3 21 22 23
3 24 25 26
3 27 28 29
3 30 31 32
3 33 34 35
3 36 37 38
3 39 40 41
3 42 31 38
3 42 25 29
3 30 43 44
3 42 43 45
3 46 47 48
3 49 50 44
3 33 28 51
3 36 47 51
3 46 34 41
3 52 53 51
3 54 55 56
3 54 57 58
3 59 60 58
3 61 57 62
3 63 64 65
3 66 67 68
3 59 69 70
3 71 72 73
3 66 72 74
3 63 75 74
3 59 76 77
3 78 79 80
3 78 81 68
3 82 83 74
3 78 69 65
3 63 84 85
3 78 76 85
3 86 87 88
3 89 90 58
3 86 91 56
3 86 84 77
3 86 64 70
3 92 81 93
3 54 91 62
3 94 91 95
3 89 57 95
3 96 79 97
3 98 75 80
3 99 100 101
3 102 103 104
3 105 106 107
3 108 109 110
3 111 112 113
3 114 115 101
3 116 117 118
3 119 112 107
3 120 121 122
3 123 124 125
3 126 121 127
3 128 112 110
3 116 129 130
3 114 131 132
3 120 109 104
3 133 115 134
3 126 109 113
3 105 135 110
3 102 136 113
3 128 137 118
3 138 106 122
3 119 106 118
3 139 100 140
3 108 103 141
3 142 117 140
3 138 135 127
3 108 136 118
3 139 143 144
3 111 145 146
3 119 137 141
3 111 124 132
3 126 135 104
